<svg xmlns="http://www.w3.org/2000/svg" xmlns:xlink="http://www.w3.org/1999/xlink" width="100" height="100" viewBox="0 0 100 100">
  <defs>
    <clipPath id="clip-path">
      <rect id="Rectangle_163" data-name="Rectangle 163" width="100" height="100" transform="translate(747 3711)" fill="#fff"/>
    </clipPath>
  </defs>
  <g id="employees" transform="translate(-747 -3711)" opacity="0.5" clip-path="url(#clip-path)">
    <g id="employee" transform="translate(747 3714.169)">
      <g id="Group_464" data-name="Group 464" transform="translate(0 0)">
        <path id="Path_1299" data-name="Path 1299" d="M98.535,82.4a1.465,1.465,0,0,0-1.465,1.465v9.788a.247.247,0,0,1-.247.247H91.257V72.5a1.465,1.465,0,1,0-2.93,0V93.9H77.572l2.911-3.2a2.342,2.342,0,0,0,.567-1.879c0-.015,0-.029-.007-.044L77.771,69.441l.6-.906.157.111a2.293,2.293,0,0,0,3.379-.845h0l3.33-6.674,7.606,2.946a7.291,7.291,0,0,1,4.224,6.61v6.348a1.465,1.465,0,0,0,2.93,0V70.682a10.215,10.215,0,0,0-6.045-9.322l-.028-.011L80.974,56.332V53.664a10.7,10.7,0,0,0,3.868-6.643,5.112,5.112,0,0,0,2.72-1.2,5.044,5.044,0,0,0,.615-7.013V34.858A14.017,14.017,0,0,0,65.044,24.2,5.035,5.035,0,0,0,63.91,21.15V17.2a14.029,14.029,0,1,0-28.057,0v4.056a4.778,4.778,0,0,0-1.133,2.933A13.966,13.966,0,0,0,29.2,21.292a1.465,1.465,0,0,0-.746,2.833,11.1,11.1,0,0,1,8.264,10.732v2.191c-.063-.013-.266-.048-.274-.049a1.687,1.687,0,0,0-.35-.99c-.375-.539-1.048-1.21-3.214-3.538a2.316,2.316,0,0,0-2.968-.362,20.932,20.932,0,0,1-12.4,3.413,2.341,2.341,0,0,0-2.576,1.5c-.032.005-.395.078-.415.083V34.857a11.17,11.17,0,0,1,7.893-10.627,1.465,1.465,0,1,0-.845-2.805,14.14,14.14,0,0,0-7.153,4.99,13.9,13.9,0,0,0-2.825,8.442v4.056A4.774,4.774,0,0,0,10.449,42a5.058,5.058,0,0,0,4.48,5.021,10.82,10.82,0,0,0,4.082,6.815v2.5L6.073,61.349l-.028.011A10.213,10.213,0,0,0,0,70.682V93.655a3.18,3.18,0,0,0,3.177,3.177H48.288a3.156,3.156,0,0,0,1.712-.5,3.155,3.155,0,0,0,1.712.5H96.823A3.18,3.18,0,0,0,100,93.655V83.867A1.465,1.465,0,0,0,98.535,82.4ZM14.785,44A2.115,2.115,0,0,1,13.378,42a2.164,2.164,0,0,1,1.407-1.906ZM82.5,60.063,79.62,65.826l-3.239-2.3,3.6-4.438Zm-8.232,1.421-3.788-4.676V55.4a11.814,11.814,0,0,0,3.807.623h0a10.83,10.83,0,0,0,3.762-.683v1.475Zm1.72,5.352-.539.811H73.083l-.539-.811,1.72-1.221ZM50,43.824l-3.788-4.676V37.743a11.813,11.813,0,0,0,3.807.623h0a10.828,10.828,0,0,0,3.762-.683v1.475Zm1.72,5.353-.539.811H48.815l-.539-.811L50,47.955ZM38.46,29.221a5.239,5.239,0,0,0,.735.14,10.82,10.82,0,0,0,4.082,6.815v2.5l-2.988,1.158a5.021,5.021,0,0,0-.647-1.021V34.858A13.994,13.994,0,0,0,38.46,29.221ZM57.78,27.67a7.9,7.9,0,0,1-15.8,0V20.809a23.988,23.988,0,0,0,13.36-3.631c1.321,1.416,2.107,2.239,2.438,2.621C57.78,23.446,57.78,24.854,57.78,27.67Zm2.8,1.691a5.271,5.271,0,0,0,.731-.141,13.944,13.944,0,0,0-1.187,5.638v4.056a5,5,0,0,0-.579.856l-2.834-1.1V36A10.7,10.7,0,0,0,60.575,29.361ZM44.278,41.43l3.6,4.439L45.422,47.61l0,0-.778.553L41.764,42.4Zm9.089,2.887,2.341-2.89,2.519.976-2.875,5.763-.78-.554,0,0-2.457-1.745Zm.738,6.557.157.111a2.293,2.293,0,0,0,3.379-.845h0l2.472-4.955a5.142,5.142,0,0,0,3.343,1.842,10.649,10.649,0,0,0,4.088,6.811v2.5L55.091,61.161,53.5,51.78Zm14.44,8.216,3.6,4.439-3.234,2.3-2.876-5.763Zm13.5-13.759a7.9,7.9,0,0,1-15.8,0V38.469A24,24,0,0,0,79.61,34.838c1.321,1.416,2.107,2.239,2.438,2.621C82.047,41.106,82.047,42.514,82.047,45.331ZM86.385,42A2.115,2.115,0,0,1,84.978,44V40.011A2.111,2.111,0,0,1,86.385,42ZM63.05,34.857a11.1,11.1,0,1,1,22.2,0v2.191C85.181,37.034,85,37,84.973,37a1.688,1.688,0,0,0-.35-.99c-.385-.553-1.051-1.213-3.214-3.538a2.317,2.317,0,0,0-2.968-.362,20.971,20.971,0,0,1-12.509,3.408,2.3,2.3,0,0,0-2.467,1.505c-.033.005-.394.078-.415.083V34.857Zm.271,5.237v3.9A2.11,2.11,0,0,1,61.913,42,2.162,2.162,0,0,1,63.32,40.095Zm-1.2-15.754a2.108,2.108,0,0,1-.732,1.6,2.168,2.168,0,0,1-.675.394V22.35A2.112,2.112,0,0,1,62.118,24.341ZM49.881,6.1a11.111,11.111,0,0,1,11.1,11.1v2.191c-.066-.014-.25-.046-.274-.049a1.775,1.775,0,0,0-.415-1.081c-.392-.531-1.115-1.261-3.15-3.447a2.316,2.316,0,0,0-2.968-.362,20.925,20.925,0,0,1-12.627,3.4A2.328,2.328,0,0,0,39.2,19.361c-.033.005-.395.078-.415.083V17.2h0A11.112,11.112,0,0,1,49.881,6.1ZM39.053,22.434v3.9a2.115,2.115,0,0,1-1.407-1.995A2.164,2.164,0,0,1,39.053,22.434Zm-2.61,17.576a2.116,2.116,0,0,1,0,3.983Zm-.136,7.015A5.137,5.137,0,0,0,39.788,45L42.35,50.14h0a2.293,2.293,0,0,0,3.379.845l.157-.111.6.906L44.9,61.159,32.44,56.332V53.665h0A10.708,10.708,0,0,0,36.307,47.026ZM25.728,61.485,21.94,56.808V55.4a11.808,11.808,0,0,0,3.807.622h0a10.825,10.825,0,0,0,3.762-.683v1.475Zm1.72,5.352-.539.811H24.548l-.539-.811,1.72-1.221Zm3.993-7.749,2.52.976-2.875,5.763-.78-.554,0,0-2.457-1.745ZM17.715,45.331V38.469a24.01,24.01,0,0,0,13.359-3.631c1.308,1.4,2.106,2.239,2.438,2.621v7.871a7.9,7.9,0,0,1-15.8,0Zm2.3,13.759,3.6,4.439L21.154,65.27l0,0-.778.553L17.5,60.063ZM11.672,93.9V72.5a1.465,1.465,0,0,0-2.93,0V93.9H3.177a.247.247,0,0,1-.247-.247V70.682a7.291,7.291,0,0,1,4.221-6.609l7.6-2.947,3.33,6.674h0a2.293,2.293,0,0,0,3.379.845l.157-.111.6.906L18.949,88.776c0,.014,0,.029-.007.044a2.345,2.345,0,0,0,.568,1.88l2.911,3.2H11.672Zm10.217-4.941L25,70.578h1.457l3.111,18.383-3.84,4.224Zm26.646,4.694a.247.247,0,0,1-.247.247H42.722V72.5a1.465,1.465,0,0,0-2.93,0V93.9H29.037l2.911-3.2a2.342,2.342,0,0,0,.567-1.879c0-.015,0-.029-.007-.044L29.236,69.441l.6-.906.157.111a2.293,2.293,0,0,0,3.38-.845h0l3.33-6.674,7.606,2.946a7.275,7.275,0,0,1,4.224,6.61V93.655ZM50,65.359A10.43,10.43,0,0,0,47.611,62.7l1.656-9.787h1.457l1.657,9.792A10.438,10.438,0,0,0,50,65.359ZM60.207,93.9h0V72.5a1.465,1.465,0,0,0-2.93,0V93.9H51.712a.247.247,0,0,1-.247-.247V70.682a7,7,0,0,1,1.709-4.693,7.885,7.885,0,0,1,2.512-1.916l7.6-2.947,3.33,6.674h0A2.293,2.293,0,0,0,70,68.645l.157-.111.6.906L67.484,88.776c0,.014,0,.029-.007.044a2.345,2.345,0,0,0,.568,1.88l2.911,3.2H60.207Zm10.217-4.941,3.111-18.383h1.457L78.1,88.961l-3.84,4.224Z" transform="translate(0 -3.169)" fill="#fff"/>
      </g>
    </g>
  </g>
</svg>
