<svg xmlns="http://www.w3.org/2000/svg" xmlns:xlink="http://www.w3.org/1999/xlink" width="24" height="24" viewBox="0 0 24 24">
  <defs>
    <clipPath id="clip-path">
      <rect id="Rectangle_70" data-name="Rectangle 70" width="24" height="24" transform="translate(852 2891)" fill="#e8c43a"/>
    </clipPath>
  </defs>
  <g id="fax" transform="translate(-852 -2891)" clip-path="url(#clip-path)">
    <g id="fax-2" data-name="fax" transform="translate(852 2891)">
      <path id="Path_157" data-name="Path 157" d="M39.258.6V9.234H51.773V.6a.6.6,0,0,0-.6-.6H39.854a.6.6,0,0,0-.6.6Zm2.995,1.553h3.294a.7.7,0,0,1,0,1.406H42.253a.7.7,0,0,1,0-1.406Zm0,3.522h6.526a.7.7,0,0,1,0,1.406H42.253a.7.7,0,0,1,0-1.406Z" transform="translate(-29.836 0)" fill="#e8c43a"/>
      <path id="Path_158" data-name="Path 158" d="M45.43,44.336H32.539a1.875,1.875,0,0,0-1.875,1.875V55.82A1.875,1.875,0,0,0,32.539,57.7H45.43A1.875,1.875,0,0,0,47.3,55.82V46.211A1.875,1.875,0,0,0,45.43,44.336ZM35.7,54.531h-.937a.7.7,0,0,1,0-1.406H35.7a.7.7,0,0,1,0,1.406Zm0-2.812h-.937a.7.7,0,0,1,0-1.406H35.7a.7.7,0,0,1,0,1.406Zm0-2.812h-.937a.7.7,0,0,1,0-1.406H35.7a.7.7,0,0,1,0,1.406Zm3.75,5.625h-.937a.7.7,0,0,1,0-1.406h.938a.7.7,0,1,1,0,1.406Zm0-2.812h-.937a.7.7,0,0,1,0-1.406h.938a.7.7,0,1,1,0,1.406Zm0-2.812h-.937a.7.7,0,0,1,0-1.406h.938a.7.7,0,1,1,0,1.406Zm3.75,5.625h-.937a.7.7,0,0,1,0-1.406H43.2a.7.7,0,1,1,0,1.406Zm0-2.812h-.937a.7.7,0,0,1,0-1.406H43.2a.7.7,0,1,1,0,1.406Zm0-2.812h-.937a.7.7,0,0,1,0-1.406H43.2a.7.7,0,1,1,0,1.406Z" transform="translate(-23.305 -33.695)" fill="#e8c43a"/>
      <path id="Path_159" data-name="Path 159" d="M4.078,44.336h-2.2A1.875,1.875,0,0,0,0,46.211V55.82A1.875,1.875,0,0,0,1.875,57.7h2.2A1.875,1.875,0,0,0,5.953,55.82V46.211A1.875,1.875,0,0,0,4.078,44.336Z" transform="translate(0 -33.695)" fill="#e8c43a"/>
    </g>
  </g>
</svg>
