<svg xmlns="http://www.w3.org/2000/svg" xmlns:xlink="http://www.w3.org/1999/xlink" width="209" height="110" viewBox="0 0 209 110">
  <defs>
    <clipPath id="clip-path">
      <rect id="Rectangle_139" data-name="Rectangle 139" width="209" height="110" transform="translate(140 10)" fill="#fff" stroke="#707070" stroke-width="1"/>
    </clipPath>
    <radialGradient id="radial-gradient" cx="0.5" cy="0.5" r="0.517" gradientTransform="translate(0.031) scale(0.937 1)" gradientUnits="objectBoundingBox">
      <stop offset="0" stop-color="#f2d230"/>
      <stop offset="1" stop-color="#d9a91a"/>
    </radialGradient>
  </defs>
  <g id="Mask_Group_58" data-name="Mask Group 58" transform="translate(-140 -10)" clip-path="url(#clip-path)">
    <g id="Amici_LOGO_copy" data-name="Amici LOGO copy" transform="translate(140.002 10)">
      <g id="Group_383" data-name="Group 383" transform="translate(0 70.836)">
        <path id="Path_1249" data-name="Path 1249" d="M47.334,130.356H41.715a.327.327,0,0,0-.375.375v.851a.327.327,0,0,0,.375.375H46.04V133.9a3.648,3.648,0,0,1-1.022,1.022,5.176,5.176,0,0,1-2.827.783,5.211,5.211,0,1,1-.034-10.421,4.829,4.829,0,0,1,3,.92.7.7,0,0,0,.306.17.352.352,0,0,0,.272-.136l.613-.613c.1-.1.136-.17.136-.238,0-.136-.2-.341-.613-.579a6.735,6.735,0,0,0-3.678-1.09,6.777,6.777,0,1,0,.034,13.554,6.432,6.432,0,0,0,3.848-1.158,4.8,4.8,0,0,0,1.464-1.533,1.877,1.877,0,0,0,.17-.851V130.7C47.709,130.458,47.607,130.356,47.334,130.356Z" transform="translate(-35.415 -123.715)" fill="#102938"/>
        <path id="Path_1250" data-name="Path 1250" d="M53.449,123.827H47.659a.327.327,0,0,0-.375.375v12.567a.327.327,0,0,0,.375.375h5.789a.327.327,0,0,0,.375-.375v-.851a.327.327,0,0,0-.375-.375H49.056c-.136,0-.17-.068-.17-.17v-3.95c0-.136.068-.17.17-.17h4.393a.327.327,0,0,0,.375-.375v-.851a.327.327,0,0,0-.375-.375H49.056c-.136,0-.17-.068-.17-.17v-3.848c0-.136.068-.17.17-.17h4.393a.327.327,0,0,0,.375-.375v-.851C53.824,123.929,53.721,123.827,53.449,123.827Z" transform="translate(-32.777 -123.69)" fill="#102938"/>
        <path id="Path_1251" data-name="Path 1251" d="M64.192,123.827h-.851a.327.327,0,0,0-.375.375v10.455c0,.034,0,.068-.034.068l-.068-.068-6.3-10.523a.543.543,0,0,0-.477-.272H54.793a.327.327,0,0,0-.375.375V136.8a.327.327,0,0,0,.375.375h.851a.327.327,0,0,0,.375-.375V126.415c0-.034,0-.068.034-.068s.034.034.068.068l6.266,10.455a.544.544,0,0,0,.477.272h1.294a.327.327,0,0,0,.375-.375V124.2C64.567,123.929,64.43,123.827,64.192,123.827Z" transform="translate(-31.192 -123.69)" fill="#102938"/>
        <path id="Path_1252" data-name="Path 1252" d="M70.724,123.827H64.935a.327.327,0,0,0-.375.375v12.567a.327.327,0,0,0,.375.375h5.789a.327.327,0,0,0,.375-.375v-.851a.327.327,0,0,0-.375-.375H66.331c-.136,0-.17-.068-.17-.17v-3.95c0-.136.068-.17.17-.17h4.393a.327.327,0,0,0,.375-.375v-.851a.327.327,0,0,0-.375-.375H66.331c-.136,0-.17-.068-.17-.17v-3.848c0-.136.068-.17.17-.17h4.393a.327.327,0,0,0,.375-.375v-.851C71.065,123.929,70.963,123.827,70.724,123.827Z" transform="translate(-28.998 -123.69)" fill="#102938"/>
        <path id="Path_1253" data-name="Path 1253" d="M76.8,131.762a.177.177,0,0,1,.068-.136l.511-.306a3.916,3.916,0,0,0,1.771-3.372A4,4,0,0,0,78,124.985a4.107,4.107,0,0,0-3.031-1.158H71.9a.327.327,0,0,0-.375.375v12.567a.327.327,0,0,0,.375.375h.885a.327.327,0,0,0,.375-.375V132.2c0-.136.068-.17.17-.17h1.533a.243.243,0,0,1,.2.1l2.861,4.734a.543.543,0,0,0,.477.272H79.6c.17,0,.238-.068.238-.2,0-.034-.034-.068-.068-.136Zm-1.839-1.328H73.331c-.136,0-.2-.068-.17-.17V125.6c0-.136.068-.2.17-.17h1.6a2.577,2.577,0,0,1,1.8.613,2.4,2.4,0,0,1,.783,1.907,2.578,2.578,0,0,1-.613,1.737A2.42,2.42,0,0,1,74.966,130.433Z" transform="translate(-27.465 -123.69)" fill="#102938"/>
        <path id="Path_1254" data-name="Path 1254" d="M85.381,124.133a.4.4,0,0,0-.409-.307h-.545a.4.4,0,0,0-.409.307L79.557,136.8a.257.257,0,0,0-.034.136c0,.136.1.2.272.2h.988a.4.4,0,0,0,.409-.306l.92-2.554a.174.174,0,0,1,.17-.136h4.8c.1,0,.136.034.17.136l.885,2.554a.4.4,0,0,0,.409.306H89.57c.17,0,.272-.068.272-.2a.2.2,0,0,0-.034-.136Zm1.09,8.446H82.929c-.136,0-.17-.034-.17-.136a.125.125,0,0,1,.034-.1l1.907-5.585c0-.034,0-.034.034-.034s.034,0,.034.034l1.907,5.585c0,.034.034.068.034.1A.345.345,0,0,1,86.471,132.579Z" transform="translate(-25.705 -123.69)" fill="#102938"/>
        <path id="Path_1255" data-name="Path 1255" d="M95.669,135.542H91.241c-.136,0-.17-.068-.17-.17V124.2a.327.327,0,0,0-.375-.375h-.851a.327.327,0,0,0-.375.375v12.567a.327.327,0,0,0,.375.375h5.824a.327.327,0,0,0,.375-.375v-.851A.327.327,0,0,0,95.669,135.542Z" transform="translate(-23.513 -123.69)" fill="#102938"/>
        <path id="Path_1256" data-name="Path 1256" d="M109.418,123.827h-7.731a.327.327,0,0,0-.375.375v.851a.327.327,0,0,0,.375.375h2.861c.136,0,.17.068.17.17v11.17a.327.327,0,0,0,.375.375h.851a.327.327,0,0,0,.375-.375V125.6c0-.136.068-.17.17-.17h2.929a.327.327,0,0,0,.375-.375V124.2A.327.327,0,0,0,109.418,123.827Z" transform="translate(-20.907 -123.69)" fill="#102938"/>
        <path id="Path_1257" data-name="Path 1257" d="M114.867,131.762a.177.177,0,0,1,.068-.136l.511-.306a3.916,3.916,0,0,0,1.771-3.372,4,4,0,0,0-1.158-2.963,4.107,4.107,0,0,0-3.031-1.158h-3.065a.327.327,0,0,0-.375.375v12.567a.327.327,0,0,0,.375.375h.885a.327.327,0,0,0,.375-.375V132.2c0-.136.068-.17.17-.17h1.533a.243.243,0,0,1,.2.1l2.861,4.734a.544.544,0,0,0,.477.272h1.192c.17,0,.238-.068.238-.2,0-.034-.034-.068-.068-.136Zm-1.839-1.328h-1.6c-.136,0-.2-.068-.17-.17V125.6c0-.136.068-.2.17-.17h1.6a2.577,2.577,0,0,1,1.8.613,2.4,2.4,0,0,1,.783,1.907,2.578,2.578,0,0,1-.613,1.737A2.543,2.543,0,0,1,113.028,130.433Z" transform="translate(-19.085 -123.69)" fill="#102938"/>
        <path id="Path_1258" data-name="Path 1258" d="M123.443,124.133a.4.4,0,0,0-.409-.307h-.545a.4.4,0,0,0-.409.307L117.619,136.8a.257.257,0,0,0-.034.136c0,.136.1.2.272.2h.988a.4.4,0,0,0,.409-.306l.92-2.554a.174.174,0,0,1,.17-.136h4.8c.1,0,.136.034.17.136l.885,2.554a.4.4,0,0,0,.409.306h1.022c.17,0,.272-.068.272-.2a.2.2,0,0,0-.034-.136Zm1.09,8.446h-3.542c-.136,0-.17-.034-.17-.136a.125.125,0,0,1,.034-.1l1.907-5.585c0-.034,0-.034.034-.034s.034,0,.034.034l1.907,5.585c0,.034.034.068.034.1A.345.345,0,0,1,124.532,132.579Z" transform="translate(-17.326 -123.69)" fill="#102938"/>
        <path id="Path_1259" data-name="Path 1259" d="M131.619,123.827h-3.712a.327.327,0,0,0-.375.375v12.567a.327.327,0,0,0,.375.375h3.712a6.57,6.57,0,0,0,6.607-6.641,6.477,6.477,0,0,0-1.941-4.734A6.272,6.272,0,0,0,131.619,123.827Zm3.508,10.251a4.793,4.793,0,0,1-3.508,1.5h-2.282c-.136,0-.17-.068-.17-.17v-9.74c0-.136.068-.17.17-.17h2.282a5.117,5.117,0,0,1,5.074,5.074A5.043,5.043,0,0,1,135.127,134.077Z" transform="translate(-15.137 -123.69)" fill="#102938"/>
        <path id="Path_1260" data-name="Path 1260" d="M139.319,123.855h-.851a.327.327,0,0,0-.375.375V136.8a.327.327,0,0,0,.375.375h.851a.327.327,0,0,0,.375-.375V124.23C139.693,123.958,139.591,123.821,139.319,123.855Z" transform="translate(-12.802 -123.685)" fill="#102938"/>
        <path id="Path_1261" data-name="Path 1261" d="M150.926,123.827h-.851a.327.327,0,0,0-.375.375v10.455c0,.034,0,.068-.034.068s-.034-.034-.068-.068L143.331,124.1a.543.543,0,0,0-.477-.272H141.56a.327.327,0,0,0-.375.375v12.567a.327.327,0,0,0,.375.375h.851a.327.327,0,0,0,.375-.375V126.415c0-.034,0-.068.034-.068s.034.034.068.068l6.266,10.455a.544.544,0,0,0,.477.272h1.294a.327.327,0,0,0,.375-.375V124.2C151.3,123.929,151.2,123.827,150.926,123.827Z" transform="translate(-12.131 -123.69)" fill="#102938"/>
        <path id="Path_1262" data-name="Path 1262" d="M163.164,130.356h-5.619a.327.327,0,0,0-.375.375v.851a.327.327,0,0,0,.375.375h4.325V133.9a3.648,3.648,0,0,1-1.022,1.022,5.176,5.176,0,0,1-2.827.783,5.211,5.211,0,1,1-.034-10.421,4.829,4.829,0,0,1,3,.92.7.7,0,0,0,.307.17.352.352,0,0,0,.272-.136l.613-.613c.1-.1.136-.17.136-.238,0-.136-.2-.341-.613-.579a6.734,6.734,0,0,0-3.678-1.09,6.777,6.777,0,1,0,.034,13.554,6.432,6.432,0,0,0,3.848-1.158,4.8,4.8,0,0,0,1.464-1.533,1.877,1.877,0,0,0,.17-.851V130.7C163.539,130.458,163.436,130.356,163.164,130.356Z" transform="translate(-9.919 -123.715)" fill="#102938"/>
        <path id="Path_1263" data-name="Path 1263" d="M174.3,135.542h-4.427c-.136,0-.17-.068-.17-.17V124.2a.327.327,0,0,0-.375-.375h-.851a.327.327,0,0,0-.375.375v12.567a.327.327,0,0,0,.375.375H174.3a.327.327,0,0,0,.375-.375v-.851A.327.327,0,0,0,174.3,135.542Z" transform="translate(-6.235 -123.69)" fill="#102938"/>
        <path id="Path_1264" data-name="Path 1264" d="M181.489,135.542h-4.427c-.136,0-.17-.068-.17-.17V124.2a.327.327,0,0,0-.375-.375h-.851a.327.327,0,0,0-.375.375v12.567a.327.327,0,0,0,.375.375h5.824a.327.327,0,0,0,.375-.375v-.851C181.83,135.644,181.728,135.542,181.489,135.542Z" transform="translate(-4.638 -123.69)" fill="#102938"/>
        <path id="Path_1265" data-name="Path 1265" d="M192.152,134.851c-.1-.1-.17-.17-.272-.17a.407.407,0,0,0-.272.136,4.865,4.865,0,0,1-2.895.885,5.178,5.178,0,0,1-3.678-1.6,5.046,5.046,0,0,1-1.6-3.644,5.255,5.255,0,0,1,8.173-4.257c.136.1.2.136.272.136a.347.347,0,0,0,.272-.17l.545-.715a.453.453,0,0,0,.1-.238c0-.1-.1-.238-.272-.375a6.51,6.51,0,0,0-3.78-1.124,6.713,6.713,0,0,0-4.87,2.009,6.7,6.7,0,0,0,0,9.57,6.637,6.637,0,0,0,4.836,2.009,6.52,6.52,0,0,0,3.644-1.022c.307-.2.443-.341.443-.477a.453.453,0,0,0-.1-.238Z" transform="translate(-3.176 -123.715)" fill="#102938"/>
      </g>
      <g id="Group_384" data-name="Group 384" transform="translate(2.759 90.111)">
        <path id="Path_1266" data-name="Path 1266" d="M44.517,143.833a2.84,2.84,0,0,0-2.963,2.214,7.128,7.128,0,0,1-.817-.034h-.579c-1.669,0-2.486.851-2.486,2.554l.1,6.777H39.1l-.068-6.437c-.034-1.09.375-1.635,1.124-1.635H41.35a4.215,4.215,0,0,0,.817,2.69,3.036,3.036,0,0,0,2.452,1.158c1.941,0,3.1-1.362,3.1-3.644a3.9,3.9,0,0,0-.817-2.486A2.952,2.952,0,0,0,44.517,143.833Zm1.4,5.585a1.538,1.538,0,0,1-1.294.613,1.628,1.628,0,0,1-1.294-.613,2.884,2.884,0,0,1-.613-1.941,2.933,2.933,0,0,1,.545-1.941,1.518,1.518,0,0,1,1.26-.613,1.628,1.628,0,0,1,1.294.613,2.884,2.884,0,0,1,.613,1.941A3.141,3.141,0,0,1,45.913,149.418Z" transform="translate(-37.672 -138.52)" fill="#e8c43a"/>
        <rect id="Rectangle_140" data-name="Rectangle 140" width="1.498" height="1.635" transform="translate(11.409 11)" fill="#e8c43a"/>
        <path id="Path_1267" data-name="Path 1267" d="M55.969,143.833a2.84,2.84,0,0,0-2.963,2.214,7.128,7.128,0,0,1-.817-.034H51.61c-1.669,0-2.486.851-2.486,2.554l.1,6.777h1.328l-.068-6.437c-.034-1.09.375-1.635,1.124-1.635H52.8a4.215,4.215,0,0,0,.817,2.69,3.036,3.036,0,0,0,2.452,1.158c1.941,0,3.1-1.362,3.1-3.644a3.9,3.9,0,0,0-.817-2.486A2.906,2.906,0,0,0,55.969,143.833Zm1.43,5.585a1.538,1.538,0,0,1-1.294.613,1.628,1.628,0,0,1-1.294-.613,2.884,2.884,0,0,1-.613-1.941,2.933,2.933,0,0,1,.545-1.941,1.518,1.518,0,0,1,1.26-.613,1.628,1.628,0,0,1,1.294.613,2.884,2.884,0,0,1,.613,1.941A3.141,3.141,0,0,1,57.4,149.418Z" transform="translate(-35.127 -138.52)" fill="#e8c43a"/>
        <rect id="Rectangle_141" data-name="Rectangle 141" width="1.498" height="1.635" transform="translate(25.406 11)" fill="#e8c43a"/>
        <rect id="Rectangle_142" data-name="Rectangle 142" width="1.396" height="1.498" transform="translate(32.115 2.418)" fill="#e8c43a"/>
        <path id="Path_1268" data-name="Path 1268" d="M64.368,143.972V145.2c.613,0,1.192.443,1.7,1.294a6.624,6.624,0,0,1,.92,3.372H61.848l-.409,1.26h6.811a10.415,10.415,0,0,0-1.192-5.381A3.237,3.237,0,0,0,64.368,143.972Z" transform="translate(-32.39 -138.489)" fill="#e8c43a"/>
        <rect id="Rectangle_143" data-name="Rectangle 143" width="1.396" height="1.533" transform="translate(39.916 0.954)" fill="#e8c43a"/>
        <rect id="Rectangle_144" data-name="Rectangle 144" width="1.396" height="1.533" transform="translate(42.194 0.954)" fill="#e8c43a"/>
        <path id="Path_1269" data-name="Path 1269" d="M82.659,144.028c-1.975,0-3.167,1.4-3.167,3.678a3.882,3.882,0,0,0,.783,2.418H76.155c-.545,0-.783-.341-.783-.988v-6.164H74.077v.954h-.034a2.519,2.519,0,0,0-2.077-1.124,2.362,2.362,0,0,0-1.8.817,3.922,3.922,0,0,0-.92,2.827c0,1.873.715,2.793,2.146,2.793H74.18c-.034,1.43.647,2.146,2.009,2.146H82.83c1.975,0,3.1-1.4,3.1-3.678a3.833,3.833,0,0,0-.817-2.486A3.063,3.063,0,0,0,82.659,144.028Zm-11,3.985a.936.936,0,0,1-.92-.511,2.434,2.434,0,0,1-.136-.988,2.933,2.933,0,0,1,.545-1.941,1.376,1.376,0,0,1,1.158-.647,1.977,1.977,0,0,1,1.771,1.226l.034,2.895H71.659Zm12.43,1.6a1.518,1.518,0,0,1-1.26.613,1.628,1.628,0,0,1-1.294-.613,2.884,2.884,0,0,1-.613-1.941,3.137,3.137,0,0,1,.545-1.941,1.518,1.518,0,0,1,1.26-.613,1.628,1.628,0,0,1,1.294.613,2.884,2.884,0,0,1,.613,1.941A2.933,2.933,0,0,1,84.09,149.613Z" transform="translate(-30.725 -138.749)" fill="#e8c43a"/>
        <path id="Path_1270" data-name="Path 1270" d="M103.139,139.486h-1.294c0,.919.034,2.588.034,5.04.034,2.111.034,3.78.034,5.04a1.208,1.208,0,0,1-1.294,1.328h-4.8a1.44,1.44,0,0,1-.783-.272,12.42,12.42,0,0,0,3.916-4.6,5.321,5.321,0,0,0-1.533-1.192,7.776,7.776,0,0,0-3.746-.988A6.21,6.21,0,0,0,88.9,145.48v1.6a4.494,4.494,0,0,1,2.554,1.09,15.159,15.159,0,0,1,1.941,2.077,5.542,5.542,0,0,1-2.52.647H86.759c-.579-.1-.885-.511-.885-1.226L85.8,139.52H84.511l.068,10.353a2.365,2.365,0,0,0,.647,1.737,1.833,1.833,0,0,0,1.328.579h4.359a6.4,6.4,0,0,0,3.235-.954,2.5,2.5,0,0,0,1.941.954h4.563a2.33,2.33,0,0,0,2.554-2.554c0-1.26-.034-2.929-.034-5.04C103.139,142.04,103.139,140.371,103.139,139.486Zm-8.82,10.183c-1.43-2.009-2.861-3.235-4.359-3.644a6.269,6.269,0,0,1,3.746-.988,6.507,6.507,0,0,1,2.724.579c.306.2.647.443.988.647A9.9,9.9,0,0,1,94.319,149.669Z" transform="translate(-27.366 -139.486)" fill="#e8c43a"/>
        <path id="Path_1271" data-name="Path 1271" d="M101.424,139.486l.1,12.635h1.294l-.1-12.635Z" transform="translate(-23.632 -139.486)" fill="#e8c43a"/>
        <rect id="Rectangle_145" data-name="Rectangle 145" width="1.396" height="1.498" transform="translate(83.198 2.418)" fill="#e8c43a"/>
        <rect id="Rectangle_146" data-name="Rectangle 146" width="1.396" height="1.498" transform="translate(85.51 2.418)" fill="#e8c43a"/>
        <path id="Path_1272" data-name="Path 1272" d="M110.427,144.991a3.006,3.006,0,0,0-2.486-1.158c-1.975,0-3.2,1.4-3.2,3.678a3.828,3.828,0,0,0,.851,2.52,3.1,3.1,0,0,0,2.486,1.158c1.975,0,3.167-1.4,3.167-3.678A3.577,3.577,0,0,0,110.427,144.991Zm-2.282,5.176a1.615,1.615,0,0,1-1.328-.681,3.077,3.077,0,0,1-.613-2.009,3.434,3.434,0,0,1,.545-2.009,1.57,1.57,0,0,1,2.588,0,3.015,3.015,0,0,1,.613,2.009C109.984,149.214,109.167,150.167,108.145,150.167Z" transform="translate(-22.905 -138.52)" fill="#e8c43a"/>
        <path id="Path_1273" data-name="Path 1273" d="M113.6,144v5.517a5,5,0,0,1-1.158,3.3,3.807,3.807,0,0,1-3,1.328,11.124,11.124,0,0,0,.579,1.226,4.778,4.778,0,0,0,3.542-1.873,6.325,6.325,0,0,0,1.362-4.189L114.9,144H113.6Z" transform="translate(-21.868 -138.483)" fill="#e8c43a"/>
        <rect id="Rectangle_147" data-name="Rectangle 147" width="1.396" height="1.498" transform="translate(101.966 13.997)" fill="#e8c43a"/>
        <rect id="Rectangle_148" data-name="Rectangle 148" width="1.396" height="1.498" transform="translate(111.452 2.418)" fill="#e8c43a"/>
        <rect id="Rectangle_149" data-name="Rectangle 149" width="1.43" height="1.498" transform="translate(113.764 2.418)" fill="#e8c43a"/>
        <path id="Path_1274" data-name="Path 1274" d="M148.006,139.486h-1.294c0,.919.034,2.588.034,5.04.034,2.111.034,3.78.034,5.04a1.208,1.208,0,0,1-1.294,1.328H142.83a1.357,1.357,0,0,1-1.022-.511,2.261,2.261,0,0,1-.613-1.4c-.068-3.678-.068-6.845-.1-9.5h-1.26c.068,3.985.1,7.356.1,10.081a1.313,1.313,0,0,1-.579,1.09,1.775,1.775,0,0,1-.988.307h-2.18a1.357,1.357,0,0,1-1.022-.511,2.334,2.334,0,0,1-.579-1.635c-.034-1.226-.034-2.452-.034-3.712H133.26c.068,3.337.068,4.836.034,4.529a1.212,1.212,0,0,1-.579,1.056,1.7,1.7,0,0,1-.988.307c-.136,0-.511,0-1.09.034h-2.316a8.464,8.464,0,0,0-1.294-4.189,4.359,4.359,0,0,0-3.78-1.907,7.123,7.123,0,0,0-3.065.817l.545,1.158a5.225,5.225,0,0,1,2.622-.749,3.072,3.072,0,0,1,2.452,1.294,5.692,5.692,0,0,1,1.158,3.576H117.8c-.579-.1-.885-.511-.885-1.226l-.068-10.149h-1.294l.068,10.353a2.365,2.365,0,0,0,.647,1.737,1.833,1.833,0,0,0,1.328.579h14.474a2.594,2.594,0,0,0,2.35-1.567,2.366,2.366,0,0,0,.477.851,1.877,1.877,0,0,0,1.43.749h2.418a2.594,2.594,0,0,0,2.35-1.567,2.366,2.366,0,0,0,.477.851,1.877,1.877,0,0,0,1.43.749h2.52a2.33,2.33,0,0,0,2.554-2.554c0-1.26-.034-2.929-.034-5.04C148.04,142.04,148.006,140.371,148.006,139.486Z" transform="translate(-20.552 -139.486)" fill="#e8c43a"/>
        <rect id="Rectangle_150" data-name="Rectangle 150" width="1.396" height="1.533" transform="translate(135.865 18.356)" fill="#e8c43a"/>
        <rect id="Rectangle_151" data-name="Rectangle 151" width="1.396" height="1.533" transform="translate(133.519 18.356)" fill="#e8c43a"/>
        <rect id="Rectangle_152" data-name="Rectangle 152" width="1.396" height="1.533" transform="translate(152.433 0.307)" fill="#e8c43a"/>
        <rect id="Rectangle_153" data-name="Rectangle 153" width="1.396" height="1.498" transform="translate(151.276 2.418)" fill="#e8c43a"/>
        <rect id="Rectangle_154" data-name="Rectangle 154" width="1.396" height="1.498" transform="translate(153.557 2.418)" fill="#e8c43a"/>
        <rect id="Rectangle_155" data-name="Rectangle 155" width="1.396" height="1.498" transform="translate(164.081 2.418)" fill="#e8c43a"/>
        <rect id="Rectangle_156" data-name="Rectangle 156" width="1.43" height="1.498" transform="translate(166.362 2.418)" fill="#e8c43a"/>
        <rect id="Rectangle_157" data-name="Rectangle 157" width="1.396" height="1.498" transform="translate(174.195 14.031)" fill="#e8c43a"/>
        <rect id="Rectangle_158" data-name="Rectangle 158" width="1.43" height="1.498" transform="translate(171.879 14.031)" fill="#e8c43a"/>
        <path id="Path_1275" data-name="Path 1275" d="M196.455,143.8c-1.975,0-3.167,1.4-3.167,3.678a3.882,3.882,0,0,0,.783,2.418h-3.916a1.357,1.357,0,0,1-1.022-.511,2.334,2.334,0,0,1-.579-1.635c-.034-1.226-.034-2.452-.034-3.712h-1.294c.068,3.337.068,4.836.034,4.529a1.313,1.313,0,0,1-.579,1.09,1.7,1.7,0,0,1-.988.307h-3.1a1.357,1.357,0,0,1-1.022-.511,2.334,2.334,0,0,1-.579-1.635c-.034-1.226-.034-2.452-.034-3.712h-1.294c.068,3.337.068,4.836.034,4.529a1.212,1.212,0,0,1-.579,1.056,1.7,1.7,0,0,1-.988.307c-.136,0-.511,0-1.09.034h-2.418a1.437,1.437,0,0,1-1.022-.477,2.227,2.227,0,0,1-.613-1.5c-.034-1.771-.034-3.065-.034-3.882h-1.294c.034,2.861.068,4.461.068,4.836a1.268,1.268,0,0,1-1.328,1.328,2.472,2.472,0,0,1-1.635-.511,2.144,2.144,0,0,1-.681-1.635c-.034-1.533-.034-2.69-.034-3.406h-1.294c.034,2.418.068,3.848.068,4.257a1.208,1.208,0,0,1-1.294,1.328,1.942,1.942,0,0,1-2.214-2.18v-3.406h-1.294c.034.885.034,1.669.034,2.282v3.065h-3.95a1.342,1.342,0,0,1-1.192-1.226,10.412,10.412,0,0,0-.613-2.895,3.064,3.064,0,0,0-3-1.941c-2.384,0-3.61,1.635-3.61,4.938H153.2l.034,1.124a4.358,4.358,0,0,1-1.09,2.963,3.44,3.44,0,0,1-2.656,1.226,3.491,3.491,0,0,1-2.656-1.226,4.118,4.118,0,0,1-1.09-2.929c-.034-1.192-.034-2.009-.034-2.418h-1.294c.034,1.124.068,1.907.068,2.384a5.6,5.6,0,0,0,1.464,3.916,4.654,4.654,0,0,0,7.084,0,5.514,5.514,0,0,0,1.464-3.882l-.068-2.418h-3.372a2.49,2.49,0,0,1,.613-1.7,1.937,1.937,0,0,1,1.6-.681,1.9,1.9,0,0,1,1.873,1.26,7.4,7.4,0,0,1,.477,2.486,2.619,2.619,0,0,0,.749,1.669,2.051,2.051,0,0,0,1.464.647h5.449v-.851a2.584,2.584,0,0,0,.783.817,3.164,3.164,0,0,0,1.5.307,2.206,2.206,0,0,0,2.35-1.533,2.977,2.977,0,0,0,1.022,1.26,3.144,3.144,0,0,0,1.5.341,2.394,2.394,0,0,0,2.384-1.737,1.981,1.981,0,0,0,1.873,1.464h3.61a2.594,2.594,0,0,0,2.35-1.567,2.366,2.366,0,0,0,.477.851,1.877,1.877,0,0,0,1.43.749H185.9a2.594,2.594,0,0,0,2.35-1.567,2.366,2.366,0,0,0,.477.851,1.877,1.877,0,0,0,1.43.749h6.3c1.975,0,3.1-1.4,3.1-3.678a3.833,3.833,0,0,0-.817-2.486A2.27,2.27,0,0,0,196.455,143.8Zm1.43,5.585a1.518,1.518,0,0,1-1.26.613,1.628,1.628,0,0,1-1.294-.613,2.884,2.884,0,0,1-.613-1.941,3.137,3.137,0,0,1,.545-1.941,1.518,1.518,0,0,1,1.26-.613,1.628,1.628,0,0,1,1.294.613,2.884,2.884,0,0,1,.613,1.941A2.932,2.932,0,0,1,197.885,149.39Z" transform="translate(-14.257 -138.526)" fill="#e8c43a"/>
        <path id="Path_1276" data-name="Path 1276" d="M192.579,139.486h-1.294l.1,12.635h1.294Z" transform="translate(-3.842 -139.486)" fill="#e8c43a"/>
      </g>
      <path id="Path_1277" data-name="Path 1277" d="M68.858,75.26H52.681L37.254,125.867H50.978l2.486-10.762H67.632l2.486,10.762H84.285ZM55.882,104.786l.851-3.508c1.26-4.836,2.486-10.9,3.576-16.04h.306c1.26,5.074,2.486,11.2,3.746,16.04l.851,3.508Z" transform="translate(-35.006 -63.647)" fill="#102938"/>
      <path id="Path_1278" data-name="Path 1278" d="M113.5,75.26l-7.628,21.012-2.793,8.241h-.306l-2.793-8.241L92.046,75.26H78.186v50.607H90.48v-14.95c0-5.142-1.09-13.009-1.7-18.05h.306l4.053,11.851,7.015,17.062h4.972l7.015-17.062,4.189-11.851h.307c-.613,5.074-1.7,12.907-1.7,18.05v14.95h12.43V75.26Z" transform="translate(-26.01 -63.647)" fill="#102938"/>
      <path id="Path_1279" data-name="Path 1279" d="M126.084,75.26v50.607h13.384V75.26Z" transform="translate(-15.44 -63.647)" fill="#102938"/>
      <path id="Path_1280" data-name="Path 1280" d="M176.4,111.418a11.642,11.642,0,0,1-8.889,4.053c-6.539,0-10.9-5.279-10.9-14.78,0-9.2,5.142-14.644,11.2-14.644,3.269,0,5.449,1.26,7.935,3.44l7.322-8.241a22.181,22.181,0,0,0-15.427-6.709c-13.077,0-24.758,9.672-24.758,26.632,0,17.3,11.2,25.848,24.452,25.848a21.111,21.111,0,0,0,16.347-7.492Z" transform="translate(-11.771 -63.808)" fill="#102938"/>
      <path id="Path_1281" data-name="Path 1281" d="M180.474,75.26V87.724A139.294,139.294,0,0,1,192.427,75.26Zm12.669,14.61a161.026,161.026,0,0,0-11.2,18.118c-.477.92-.988,1.873-1.464,2.793V125.9h13.384V88.882C193.619,89.223,193.381,89.529,193.142,89.87Z" transform="translate(-3.486 -63.647)" fill="#102938"/>
      <path id="Path_1282" data-name="Path 1282" d="M216.6,67.6v.1c-1.056.988-2.146,1.941-3.167,2.929a145.01,145.01,0,0,0-17.641,20.3,163.789,163.789,0,0,0-11.341,18.322c-1.294,2.418-2.52,4.87-3.746,7.288a.745.745,0,0,1-.681.443,1.54,1.54,0,0,1-1.4-.647c-1.941-2.282-3.916-4.563-5.858-6.811-3.508-4.053-6.981-8.105-10.489-12.158-.1-.1-.2-.238-.341-.409.477-.613.988-1.192,1.5-1.839q6.743,3.78,13.418,7.56c1.226-1.635,2.418-3.269,3.644-4.87a150.942,150.942,0,0,1,19.82-21.353A88.56,88.56,0,0,1,214.7,66a2.54,2.54,0,0,0,.409-.238C215.616,66.372,216.127,66.985,216.6,67.6Z" transform="translate(-7.604 -65.758)" fill="url(#radial-gradient)"/>
    </g>
  </g>
</svg>
