<svg xmlns="http://www.w3.org/2000/svg" xmlns:xlink="http://www.w3.org/1999/xlink" width="50" height="50" viewBox="0 0 50 50">
  <defs>
    <clipPath id="clip-path">
      <rect id="Rectangle_175" data-name="Rectangle 175" width="50" height="50" transform="translate(317 1947)" fill="#e8c43a"/>
    </clipPath>
  </defs>
  <g id="mission" transform="translate(-317 -1947)" clip-path="url(#clip-path)">
    <path id="goal" d="M49.556,46.156,32.246,21.489a2.434,2.434,0,0,0-.534-.55V15.625H43.919a1.465,1.465,0,0,0,1.244-2.239L42.606,9.277l2.557-4.109A1.465,1.465,0,0,0,43.919,2.93H31.712V1.465a1.465,1.465,0,0,0-2.93,0V20.94a2.436,2.436,0,0,0-.534.55L20.1,33.1,16.96,28.743a2.441,2.441,0,0,0-3.961,0L.463,46.131A2.441,2.441,0,0,0,2.443,50H47.557a2.441,2.441,0,0,0,2-3.844Zm-35.679.914L23.3,33.642l2.414,2.25a1.465,1.465,0,0,0,2,0l2.536-2.363,2.536,2.363a1.465,1.465,0,0,0,2,0l2.415-2.25L46.618,47.07Zm-2.938-.914a2.444,2.444,0,0,0-.395.914H3.4L14.98,31.005l3.34,4.633ZM30.247,23.741l5.249,7.48-1.714,1.6-2.536-2.363a1.465,1.465,0,0,0-2,0l-2.536,2.363L25,31.221ZM41.282,5.859,39.637,8.5a1.465,1.465,0,0,0,0,1.548L41.282,12.7h-9.57V5.859Z" transform="translate(317 1947)" fill="#e8c43a"/>
  </g>
</svg>
