<svg xmlns="http://www.w3.org/2000/svg" xmlns:xlink="http://www.w3.org/1999/xlink" width="50" height="50" viewBox="0 0 50 50">
  <defs>
    <clipPath id="clip-path">
      <rect id="Rectangle_173" data-name="Rectangle 173" width="50" height="50" transform="translate(614 1940)" fill="#e8c43a"/>
    </clipPath>
  </defs>
  <g id="philosophy" transform="translate(-614 -1940)" clip-path="url(#clip-path)">
    <g id="philosophy-2" data-name="philosophy" transform="translate(615.473 1940)">
      <path id="Path_1351" data-name="Path 1351" d="M33.716,15.64a11.47,11.47,0,0,0-6.669,20.8l.53,7.932a1.47,1.47,0,0,0,1.467,1.372h9.343a1.47,1.47,0,0,0,1.467-1.372l.53-7.932a11.47,11.47,0,0,0-6.669-20.8Zm3.3,27.165H30.419l-.382-5.714h7.356Zm1.517-8.655H35.186V29.5l.9.521a1.47,1.47,0,0,0,1.47-2.547l-.9-.521.9-.521a1.47,1.47,0,0,0-1.47-2.547l-.9.521V23.366a1.47,1.47,0,1,0-2.941,0v1.043l-.9-.521a1.47,1.47,0,0,0-1.47,2.547l.9.521-.9.521a1.47,1.47,0,0,0,1.47,2.547l.9-.521V34.15H28.9a8.529,8.529,0,1,1,9.626,0Z" transform="translate(-12.596 -7.82)" fill="#e8c43a"/>
      <path id="Path_1352" data-name="Path 1352" d="M49.5,29.356l-3.851-6.733a.972.972,0,0,1-.094-.446c.283-9.7-5.33-17.874-14.3-20.832C19.775-2.442,6.191,1.716,3.571,14.462c-1.9,9.22.833,13.185,3.99,16.866,1.452,1.693,2.5,2.916,2.533,4.818A34.912,34.912,0,0,1,7.731,48.025,1.471,1.471,0,0,0,9.112,50h20.26a1.47,1.47,0,0,0,1.448-1.216,20.688,20.688,0,0,1,.777-3.132,23.676,23.676,0,0,0,5.281,2.014c2.675.652,4.514.547,5.467-.313,1.526-1.377,2.15-3.205,3.288-12.562l1.33-.189A3.487,3.487,0,0,0,49.5,29.356ZM46.55,31.69l-1.544.22a2.664,2.664,0,0,0-2.266,2.314c-.144,1.187-.278,2.238-.405,3.173a8.1,8.1,0,0,1-4.248-.89,1.47,1.47,0,1,0-1.356,2.61,11.049,11.049,0,0,0,5.085,1.238h.08c-.575,3.478-.99,4.3-1.445,4.745a7.8,7.8,0,0,1-3.278-.392A20.618,20.618,0,0,1,31.7,42.317a1.47,1.47,0,0,0-2.02.437,13.751,13.751,0,0,0-1.515,4.306H11.17A35.333,35.333,0,0,0,13.033,36.1c-.05-2.962-1.672-4.853-3.241-6.683C7.3,26.5,4.716,23.494,6.451,15.054,8.757,3.84,20.918,1.032,30.335,4.138A17.858,17.858,0,0,1,42.616,22.091a3.917,3.917,0,0,0,.428,1.9q.015.03.032.059l3.879,6.783.018.031A.546.546,0,0,1,46.55,31.69Z" transform="translate(-2.945 0)" fill="#e8c43a"/>
    </g>
  </g>
</svg>
