<svg xmlns="http://www.w3.org/2000/svg" xmlns:xlink="http://www.w3.org/1999/xlink" width="100" height="100" viewBox="0 0 100 100">
  <defs>
    <clipPath id="clip-path">
      <rect id="Rectangle_165" data-name="Rectangle 165" width="100" height="100" transform="translate(1213 3711)" fill="#fff"/>
    </clipPath>
  </defs>
  <g id="products" transform="translate(-1213 -3711)" opacity="0.5" clip-path="url(#clip-path)">
    <g id="product" transform="translate(1213 3711)">
      <path id="Path_1300" data-name="Path 1300" d="M83.871,91.935H87.1v3.226H83.871Z" transform="translate(-1.613 -1.613)" fill="#fff"/>
      <path id="Path_1301" data-name="Path 1301" d="M77.419,91.935h3.226v3.226H77.419Z" transform="translate(-1.613 -1.613)" fill="#fff"/>
      <path id="Path_1302" data-name="Path 1302" d="M70.968,91.935h3.226v3.226H70.968Z" transform="translate(-1.613 -1.613)" fill="#fff"/>
      <path id="Path_1303" data-name="Path 1303" d="M70.968,85.484H87.1V88.71H70.968Z" transform="translate(-1.613 -1.613)" fill="#fff"/>
      <path id="Path_1304" data-name="Path 1304" d="M101.613,19.355a4.845,4.845,0,0,0-4.839-4.839V11.29a4.839,4.839,0,1,0,0-9.677H70.968a4.839,4.839,0,0,0,0,9.677v3.226a4.832,4.832,0,0,0-4.542,3.226h-1.91a8.074,8.074,0,0,0-8.065,8.065V59.677H53.226V25.806a8.074,8.074,0,0,0-8.065-8.065H43.548V6.452A4.845,4.845,0,0,0,38.71,1.613H6.452A4.845,4.845,0,0,0,1.613,6.452V29.032a4.845,4.845,0,0,0,4.839,4.839H38.71a4.845,4.845,0,0,0,4.839-4.839V20.968h1.613A4.845,4.845,0,0,1,50,25.806V59.677H46.774V51.613a8.074,8.074,0,0,0-8.065-8.065h-5a8.078,8.078,0,0,0-7.9-6.452H12.9a8.065,8.065,0,0,0,0,16.129H33.871V46.774H38.71a4.845,4.845,0,0,1,4.839,4.839v8.065H10.294L2.229,75.806H9.677v25.806H93.548V75.806H101L92.932,59.677h-26.8V54.839A4.845,4.845,0,0,1,70.968,50h1.776a8.064,8.064,0,1,0,0-3.226H70.968A8.074,8.074,0,0,0,62.9,54.839v4.839H59.677V25.806a4.845,4.845,0,0,1,4.839-4.839h1.91a4.832,4.832,0,0,0,4.542,3.226v3.226a4.839,4.839,0,0,0,0,9.677H96.774a4.839,4.839,0,1,0,0-9.677V24.194A4.845,4.845,0,0,0,101.613,19.355Zm-61.29,9.677a1.613,1.613,0,0,1-1.613,1.613H6.452a1.613,1.613,0,0,1-1.613-1.613V6.452A1.613,1.613,0,0,1,6.452,4.839H38.71a1.614,1.614,0,0,1,1.613,1.613ZM30.645,50H12.9a4.839,4.839,0,1,1,0-9.677h12.9a4.845,4.845,0,0,1,4.839,4.839Zm50-6.452a4.839,4.839,0,1,1-4.839,4.839A4.845,4.845,0,0,1,80.645,43.548ZM12.287,62.9H36.1l-4.839,9.677H7.448Zm.616,12.9H33.255L38.71,64.9v33.49H12.9ZM90.323,98.387H41.935V64.9l5.455,10.91H90.323Zm5.455-25.806H49.384L44.545,62.9H90.939ZM69.355,6.452a1.613,1.613,0,0,1,1.613-1.613H96.774a1.613,1.613,0,0,1,0,3.226H70.968A1.613,1.613,0,0,1,69.355,6.452Zm4.839,4.839H93.548v3.226H74.194Zm-4.839,8.065a1.613,1.613,0,0,1,1.613-1.613H96.774a1.613,1.613,0,0,1,0,3.226H70.968A1.613,1.613,0,0,1,69.355,19.355Zm29.032,12.9a1.613,1.613,0,0,1-1.613,1.613H70.968a1.613,1.613,0,1,1,0-3.226H96.774A1.613,1.613,0,0,1,98.387,32.258Zm-4.839-4.839H74.194V24.194H93.548Z" transform="translate(-1.613 -1.613)" fill="#fff"/>
      <path id="Path_1305" data-name="Path 1305" d="M27.419,11.29H20.968v3.226H14.516v3.226H8.065v9.677H37.1V8.065H27.419Zm-6.452,6.452v6.452H17.742V17.742ZM11.29,20.968h3.226v3.226H11.29Zm12.9,3.226V14.516h3.226v9.677Zm6.452-12.9h3.226v12.9H30.645Z" transform="translate(-1.613 -1.613)" fill="#fff"/>
      <path id="Path_1306" data-name="Path 1306" d="M11.29,43.548h3.226v3.226H11.29Z" transform="translate(-1.613 -1.613)" fill="#fff"/>
      <path id="Path_1307" data-name="Path 1307" d="M17.742,43.548h3.226v3.226H17.742Z" transform="translate(-1.613 -1.613)" fill="#fff"/>
      <path id="Path_1308" data-name="Path 1308" d="M24.194,43.548h3.226v3.226H24.194Z" transform="translate(-1.613 -1.613)" fill="#fff"/>
      <path id="Path_1309" data-name="Path 1309" d="M85.484,66.129H88.71v3.226H85.484Z" transform="translate(-1.613 -1.613)" fill="#fff"/>
      <path id="Path_1310" data-name="Path 1310" d="M79.032,66.129h3.226v3.226H79.032Z" transform="translate(-1.613 -1.613)" fill="#fff"/>
      <path id="Path_1311" data-name="Path 1311" d="M72.581,66.129h3.226v3.226H72.581Z" transform="translate(-1.613 -1.613)" fill="#fff"/>
      <path id="Path_1312" data-name="Path 1312" d="M16.129,79.032h3.226v3.226H16.129Z" transform="translate(-1.613 -1.613)" fill="#fff"/>
      <path id="Path_1313" data-name="Path 1313" d="M16.129,85.484h3.226V88.71H16.129Z" transform="translate(-1.613 -1.613)" fill="#fff"/>
      <path id="Path_1314" data-name="Path 1314" d="M16.129,91.935h3.226v3.226H16.129Z" transform="translate(-1.613 -1.613)" fill="#fff"/>
    </g>
  </g>
</svg>
