<svg xmlns="http://www.w3.org/2000/svg" xmlns:xlink="http://www.w3.org/1999/xlink" width="50" height="50" viewBox="0 0 50 50">
  <defs>
    <clipPath id="clip-path">
      <rect id="Rectangle_172" data-name="Rectangle 172" width="50" height="50" transform="translate(753 1940)" fill="#e8c43a"/>
    </clipPath>
  </defs>
  <g id="scope_of_business" data-name="scope of business" transform="translate(-753 -1940)" clip-path="url(#clip-path)">
    <g id="scope" transform="translate(757.701 1940)">
      <path id="Path_1353" data-name="Path 1353" d="M46.866,0H12.536A3.138,3.138,0,0,0,9.4,3.134v31.2a3.138,3.138,0,0,0,3.134,3.134H35.18a.732.732,0,1,0,0-1.465H12.536a1.671,1.671,0,0,1-1.67-1.67V7.726H48.535V34.333A1.671,1.671,0,0,1,46.866,36a.732.732,0,1,0,0,1.465A3.138,3.138,0,0,0,50,34.333V3.134A3.138,3.138,0,0,0,46.866,0Zm-36,6.261V3.134a1.671,1.671,0,0,1,1.67-1.67H46.866a1.671,1.671,0,0,1,1.67,1.67V6.261Z" transform="translate(-9.402)" fill="#e8c43a"/>
      <path id="Path_1354" data-name="Path 1354" d="M17.178,6.261H16.4a.732.732,0,1,0,0,1.465h.783a.732.732,0,0,0,0-1.465Z" transform="translate(-12.532 -3.131)" fill="#e8c43a"/>
      <path id="Path_1355" data-name="Path 1355" d="M25,6.261h-.783a.732.732,0,1,0,0,1.465H25a.732.732,0,1,0,0-1.465Z" transform="translate(-16.446 -3.131)" fill="#e8c43a"/>
      <path id="Path_1356" data-name="Path 1356" d="M57.094,6.261H32.049a.732.732,0,0,0,0,1.465H57.094a.732.732,0,1,0,0-1.465Z" transform="translate(-20.359 -3.131)" fill="#e8c43a"/>
      <path id="Path_1357" data-name="Path 1357" d="M67.321,64.863a.732.732,0,0,0-1.244.6l1.558,14.023a.732.732,0,0,0,1.239.444l2.82-2.743,2.281,4.723a.732.732,0,0,0,1.319-.637l-2.281-4.723,3.9-.5a.732.732,0,0,0,.422-1.246Zm4.5,10.365a.733.733,0,0,0-.417.2l-2.475,2.408L67.762,67.365l7.479,7.422Z" transform="translate(-37.737 -32.325)" fill="#e8c43a"/>
      <path id="Path_1358" data-name="Path 1358" d="M38.31,43.729A.732.732,0,0,0,39.043,43v-.86a10.14,10.14,0,0,0,9.365-9.365h.86a.732.732,0,1,0,0-1.465h-.86a10.14,10.14,0,0,0-9.365-9.365v-.86a.732.732,0,0,0-1.465,0v.86a10.14,10.14,0,0,0-9.365,9.365h-.86a.732.732,0,1,0,0,1.465h.86a10.14,10.14,0,0,0,9.365,9.365V43A.732.732,0,0,0,38.31,43.729Zm8.628-12.422H45.266a7.006,7.006,0,0,0-6.223-6.223V23.411a8.673,8.673,0,0,1,7.9,7.9Zm-9.361-7.9v3.932a.732.732,0,0,0,1.465,0V26.56a5.539,5.539,0,0,1,4.746,4.747h-.783a.732.732,0,1,0,0,1.465h.784a5.555,5.555,0,0,1-2.716,4.057.732.732,0,1,0,.734,1.268,7.024,7.024,0,0,0,3.457-5.325h1.674a8.673,8.673,0,0,1-7.9,7.9V36.735a.732.732,0,1,0-1.465,0v.783a5.539,5.539,0,0,1-4.746-4.746h.783a.732.732,0,1,0,0-1.465h-.784a5.555,5.555,0,0,1,2.716-4.057.732.732,0,0,0-.734-1.268,7.024,7.024,0,0,0-3.457,5.325H29.682a8.674,8.674,0,0,1,7.9-7.9Zm-7.9,9.361h1.673a7.006,7.006,0,0,0,6.223,6.223v1.673A8.674,8.674,0,0,1,29.682,32.772Z" transform="translate(-18.011 -10.175)" fill="#e8c43a"/>
    </g>
  </g>
</svg>
