<svg xmlns="http://www.w3.org/2000/svg" xmlns:xlink="http://www.w3.org/1999/xlink" width="100" height="100" viewBox="0 0 100 100">
  <defs>
    <clipPath id="clip-path">
      <rect id="Rectangle_164" data-name="Rectangle 164" width="100" height="100" transform="translate(199 3711)" fill="#fff"/>
    </clipPath>
  </defs>
  <g id="since" transform="translate(-199 -3711)" opacity="0.5" clip-path="url(#clip-path)">
    <g id="company" transform="translate(199 3711)">
      <path id="Path_1284" data-name="Path 1284" d="M50,82.258H62.9V20.968H50Zm3.226-3.226V72.581h6.452v6.452Zm6.452-35.484V50H53.226V43.548Zm-6.452-3.226V33.871h6.452v6.452Zm6.452,12.9v6.452H53.226V53.226Zm0,9.677v6.452H53.226V62.9Zm0-38.71v6.452H53.226V24.194Z" transform="translate(-1.613 -1.613)" fill="#fff"/>
      <path id="Path_1285" data-name="Path 1285" d="M95.161,11.453v-5a4.845,4.845,0,0,0-4.839-4.839H54.839A4.845,4.845,0,0,0,50,6.452v5a8.08,8.08,0,0,0-6.452,7.9v1.613H10.294L7.068,27.419H6.94A5.327,5.327,0,0,0,2.508,35.7l2.331,3.5V75.806H1.613v25.806h100V19.355A8.08,8.08,0,0,0,95.161,11.453ZM12.287,24.194H43.548v3.226H10.674ZM6.94,30.645H43.548V37.1H7.315L5.192,33.913A2.1,2.1,0,0,1,6.94,30.645ZM20.968,75.806V66.129h9.677v9.677Zm0-12.9V53.226h9.677V62.9ZM17.742,40.323V50H8.065V40.323Zm12.9,0V50H20.968V40.323ZM8.065,53.226h9.677V62.9H8.065Zm25.806,0h9.677V62.9H33.871Zm0-3.226V40.323h9.677V50ZM8.065,66.129h9.677v9.677H8.065Zm11.29,32.258H11.29V92.742a4.032,4.032,0,0,1,8.065,0Zm17.742,0H29.032V92.742a4.032,4.032,0,0,1,8.065,0Zm6.452,0H40.323V92.742a7.258,7.258,0,0,0-14.516,0v5.645H22.581V92.742a7.258,7.258,0,0,0-14.516,0v5.645H4.839V79.032h38.71ZM33.871,75.806V66.129h9.677v9.677ZM54.839,4.839H90.323a1.616,1.616,0,0,1,1.613,1.613V11.29H53.226V6.452A1.616,1.616,0,0,1,54.839,4.839Zm37.1,93.548H82.258V88.71h9.677Zm-12.9,0h-12.9V88.71h12.9Zm-16.129,0H53.226V88.71H62.9Zm35.484,0H95.161v-12.9H50v12.9H46.774V19.355a4.845,4.845,0,0,1,4.839-4.839H93.548a4.845,4.845,0,0,1,4.839,4.839Z" transform="translate(-1.613 -1.613)" fill="#fff"/>
      <path id="Path_1286" data-name="Path 1286" d="M66.129,82.258h12.9V20.968h-12.9Zm3.226-3.226V72.581h6.452v6.452Zm6.452-35.484V50H69.355V43.548Zm-6.452-3.226V33.871h6.452v6.452Zm6.452,12.9v6.452H69.355V53.226Zm0,9.677v6.452H69.355V62.9Zm0-38.71v6.452H69.355V24.194Z" transform="translate(-1.613 -1.613)" fill="#fff"/>
      <path id="Path_1287" data-name="Path 1287" d="M82.258,82.258h12.9V20.968h-12.9Zm3.226-3.226V72.581h6.452v6.452Zm6.452-35.484V50H85.484V43.548Zm-6.452-3.226V33.871h6.452v6.452Zm6.452,12.9v6.452H85.484V53.226Zm0,9.677v6.452H85.484V62.9Zm0-38.71v6.452H85.484V24.194Z" transform="translate(-1.613 -1.613)" fill="#fff"/>
    </g>
  </g>
</svg>
