<svg xmlns="http://www.w3.org/2000/svg" xmlns:xlink="http://www.w3.org/1999/xlink" width="50" height="50" viewBox="0 0 50 50">
  <defs>
    <clipPath id="clip-path">
      <rect id="Rectangle_174" data-name="Rectangle 174" width="50" height="50" transform="translate(456 1927)" fill="#e8c43a"/>
    </clipPath>
  </defs>
  <g id="vision" transform="translate(-456 -1927)" clip-path="url(#clip-path)">
    <g id="opportunity" transform="translate(456 1927)">
      <path id="Path_1359" data-name="Path 1359" d="M43.834,61.856a6.452,6.452,0,1,0-7.023,0,11.3,11.3,0,0,0-7.779,10.724v3.226H51.613V72.581A11.3,11.3,0,0,0,43.834,61.856Zm.994,9.111L41.6,74.194h-.163L44.8,64.01a9.715,9.715,0,0,1,1.623,1.069l-.385,2.184L43.09,69.23ZM34.606,67.262l-.385-2.184a9.715,9.715,0,0,1,1.623-1.069l3.364,10.184h-.163l-3.226-3.226,1.739-1.738Zm.878-10.81a4.839,4.839,0,1,1,4.839,4.839A4.844,4.844,0,0,1,35.484,56.452Zm7.827,6.929-2.989,9.048-2.988-9.048a9.591,9.591,0,0,1,5.977,0Zm-12.666,9.2a9.631,9.631,0,0,1,2.182-6.111l.309,1.752,1.888,1.259-1.487,1.487,3.226,3.226H30.645ZM50,74.194H43.882l3.226-3.226L45.621,69.48l1.888-1.259.309-1.752A9.635,9.635,0,0,1,50,72.581Z" transform="translate(-15.323 -25.806)" fill="#e8c43a"/>
      <path id="Path_1360" data-name="Path 1360" d="M39.622,25.159h8.065V15.481h3.927L43.654,3.544,35.7,15.481h3.927Zm-.912-11.29,4.944-7.417L48.6,13.869H46.073v9.677H41.235V13.869Z" transform="translate(-18.654 -2.578)" fill="#e8c43a"/>
      <path id="Path_1361" data-name="Path 1361" d="M4.4,23.75,7.177,37.659,9.91,34.926l6.86,7.133L22.7,36.125l-7.133-6.86L18.3,26.532ZM20.4,36.148l-3.608,3.608-6.86-7.133L8.168,34.387,6.452,25.806l8.581,1.716-1.765,1.765Z" transform="translate(-3.004 -12.681)" fill="#e8c43a"/>
      <path id="Path_1362" data-name="Path 1362" d="M62.213,36.125l5.934,5.934,6.86-7.133,2.733,2.733L80.521,23.75,66.612,26.531l2.733,2.733ZM78.465,25.806l-1.716,8.581-1.765-1.765-6.86,7.133-3.608-3.608,7.133-6.86-1.765-1.765Z" transform="translate(-31.913 -12.681)" fill="#e8c43a"/>
      <path id="Path_1363" data-name="Path 1363" d="M4.032,6.452A2.419,2.419,0,1,0,1.613,4.032,2.422,2.422,0,0,0,4.032,6.452Zm0-3.226a.806.806,0,1,1-.806.806A.808.808,0,0,1,4.032,3.226Z" transform="translate(-1.613 -1.613)" fill="#e8c43a"/>
      <path id="Path_1364" data-name="Path 1364" d="M0,0H1.613V1.532H0Z" transform="translate(8.828 9.971) rotate(-45)" fill="#e8c43a"/>
      <path id="Path_1365" data-name="Path 1365" d="M0,0H1.613V1.613H0Z" transform="translate(4.267 5.409) rotate(-45)" fill="#e8c43a"/>
      <path id="Path_1366" data-name="Path 1366" d="M0,0H1.613V1.613H0Z" transform="translate(6.548 7.69) rotate(-45)" fill="#e8c43a"/>
      <path id="Path_1367" data-name="Path 1367" d="M4.032,91.935a2.419,2.419,0,1,0,2.419,2.419A2.422,2.422,0,0,0,4.032,91.935Zm0,3.226a.806.806,0,1,1,.806-.806A.808.808,0,0,1,4.032,95.161Z" transform="translate(-1.613 -46.774)" fill="#e8c43a"/>
      <path id="Path_1368" data-name="Path 1368" d="M0,0H1.532V1.613H0Z" transform="translate(8.825 40.026) rotate(-45)" fill="#e8c43a"/>
      <path id="Path_1369" data-name="Path 1369" d="M0,0H1.613V1.613H0Z" transform="translate(4.263 44.587) rotate(-45)" fill="#e8c43a"/>
      <path id="Path_1370" data-name="Path 1370" d="M0,0H1.613V1.613H0Z" transform="translate(6.544 42.306) rotate(-45)" fill="#e8c43a"/>
      <path id="Path_1371" data-name="Path 1371" d="M94.355,91.935a2.419,2.419,0,1,0,2.419,2.419A2.422,2.422,0,0,0,94.355,91.935Zm0,3.226a.806.806,0,1,1,.806-.806A.808.808,0,0,1,94.355,95.161Z" transform="translate(-46.774 -46.774)" fill="#e8c43a"/>
      <path id="Path_1372" data-name="Path 1372" d="M0,0H1.613V1.613H0Z" transform="translate(43.441 44.591) rotate(-45)" fill="#e8c43a"/>
      <path id="Path_1373" data-name="Path 1373" d="M0,0H1.613V1.532H0Z" transform="translate(38.938 40.087) rotate(-45)" fill="#e8c43a"/>
      <path id="Path_1374" data-name="Path 1374" d="M0,0H1.613V1.613H0Z" transform="translate(41.16 42.31) rotate(-45)" fill="#e8c43a"/>
      <path id="Path_1375" data-name="Path 1375" d="M94.355,6.452a2.419,2.419,0,1,0-2.419-2.419A2.422,2.422,0,0,0,94.355,6.452Zm0-3.226a.806.806,0,1,1-.806.806A.808.808,0,0,1,94.355,3.226Z" transform="translate(-46.774 -1.613)" fill="#e8c43a"/>
      <path id="Path_1376" data-name="Path 1376" d="M0,0H1.613V1.613H0Z" transform="translate(41.165 7.694) rotate(-45)" fill="#e8c43a"/>
      <path id="Path_1377" data-name="Path 1377" d="M0,0H1.613V1.613H0Z" transform="translate(43.445 5.413) rotate(-45)" fill="#e8c43a"/>
      <path id="Path_1378" data-name="Path 1378" d="M0,0H1.532V1.613H0Z" transform="translate(38.941 9.916) rotate(-45)" fill="#e8c43a"/>
      <path id="Path_1379" data-name="Path 1379" d="M94.355,61.29a2.419,2.419,0,1,0,2.419,2.419A2.422,2.422,0,0,0,94.355,61.29Zm0,3.226a.806.806,0,1,1,.806-.806A.808.808,0,0,1,94.355,64.516Z" transform="translate(-46.774 -31.452)" fill="#e8c43a"/>
      <path id="Path_1380" data-name="Path 1380" d="M85.484,64.516H87.1v1.613H85.484Z" transform="translate(-43.548 -33.065)" fill="#e8c43a"/>
      <path id="Path_1381" data-name="Path 1381" d="M72.581,64.516h1.613v1.613H72.581Z" transform="translate(-37.097 -33.065)" fill="#e8c43a"/>
      <path id="Path_1382" data-name="Path 1382" d="M79.032,64.516h1.613v1.613H79.032Z" transform="translate(-40.323 -33.065)" fill="#e8c43a"/>
      <path id="Path_1383" data-name="Path 1383" d="M4.032,66.129A2.419,2.419,0,1,0,1.613,63.71,2.422,2.422,0,0,0,4.032,66.129Zm0-3.226a.806.806,0,1,1-.806.806A.808.808,0,0,1,4.032,62.9Z" transform="translate(-1.613 -31.452)" fill="#e8c43a"/>
      <path id="Path_1384" data-name="Path 1384" d="M20.968,64.516h1.613v1.613H20.968Z" transform="translate(-11.29 -33.065)" fill="#e8c43a"/>
      <path id="Path_1385" data-name="Path 1385" d="M14.516,64.516h1.613v1.613H14.516Z" transform="translate(-8.065 -33.065)" fill="#e8c43a"/>
      <path id="Path_1386" data-name="Path 1386" d="M27.419,64.516h1.613v1.613H27.419Z" transform="translate(-14.516 -33.065)" fill="#e8c43a"/>
    </g>
  </g>
</svg>
