<svg xmlns="http://www.w3.org/2000/svg" xmlns:xlink="http://www.w3.org/1999/xlink" width="24" height="24" viewBox="0 0 24 24">
  <defs>
    <clipPath id="clip-path">
      <rect id="Rectangle_66" data-name="Rectangle 66" width="24" height="24" transform="translate(274 2891)" fill="#e8c43a"/>
    </clipPath>
  </defs>
  <g id="website" transform="translate(-274 -2891)" clip-path="url(#clip-path)">
    <g id="globalization" transform="translate(274 2891.079)">
      <path id="Path_138" data-name="Path 138" d="M57.275,27.621a24.558,24.558,0,0,1-4.345.5v4.173h4.946A22.632,22.632,0,0,0,57.275,27.621Z" transform="translate(-40.227 -21.07)" fill="#e8c43a"/>
      <path id="Path_139" data-name="Path 139" d="M4.944,27.022a24.084,24.084,0,0,1,.642-5A15.836,15.836,0,0,1,2.25,20.69,11.909,11.909,0,0,0,0,27.022Z" transform="translate(0 -15.803)" fill="#e8c43a"/>
      <path id="Path_140" data-name="Path 140" d="M4.944,52.93H0a11.91,11.91,0,0,0,2.25,6.331,15.836,15.836,0,0,1,3.336-1.33A24.08,24.08,0,0,1,4.944,52.93Z" transform="translate(0 -40.305)" fill="#e8c43a"/>
      <path id="Path_141" data-name="Path 141" d="M54.249,1.06A3.541,3.541,0,0,0,52.93.326V5.965a23.225,23.225,0,0,0,3.962-.443,14.382,14.382,0,0,0-.8-1.957A7.828,7.828,0,0,0,54.249,1.06Z" transform="translate(-40.227 -0.326)" fill="#e8c43a"/>
      <path id="Path_142" data-name="Path 142" d="M15.964,79.4a14.69,14.69,0,0,0-2.807,1.087c.112.121.225.24.342.357a11.969,11.969,0,0,0,4.734,2.922,10.6,10.6,0,0,1-1.362-2.11A15.853,15.853,0,0,1,15.964,79.4Z" transform="translate(-9.999 -60.422)" fill="#e8c43a"/>
      <path id="Path_143" data-name="Path 143" d="M31.357,3.565a14.388,14.388,0,0,0-.8,1.957,23.225,23.225,0,0,0,3.962.443V.326A3.541,3.541,0,0,0,33.2,1.06,7.827,7.827,0,0,0,31.357,3.565Z" transform="translate(-23.227 -0.326)" fill="#e8c43a"/>
      <path id="Path_144" data-name="Path 144" d="M77.366,52.93a24.083,24.083,0,0,1-.642,5,15.836,15.836,0,0,1,3.336,1.33,11.91,11.91,0,0,0,2.25-6.331Z" transform="translate(-58.31 -40.305)" fill="#e8c43a"/>
      <path id="Path_145" data-name="Path 145" d="M67.961,6.774a14.688,14.688,0,0,0,2.806-1.087c-.112-.121-.225-.24-.342-.357a11.969,11.969,0,0,0-4.734-2.922,10.6,10.6,0,0,1,1.362,2.11A15.855,15.855,0,0,1,67.961,6.774Z" transform="translate(-49.925 -1.908)" fill="#e8c43a"/>
      <path id="Path_146" data-name="Path 146" d="M56.1,78.577a14.383,14.383,0,0,0,.8-1.957,23.225,23.225,0,0,0-3.962-.443v5.639a3.54,3.54,0,0,0,1.319-.734A7.826,7.826,0,0,0,56.1,78.577Z" transform="translate(-40.227 -57.973)" fill="#e8c43a"/>
      <path id="Path_147" data-name="Path 147" d="M76.724,22.021a24.083,24.083,0,0,1,.642,5H82.31a11.909,11.909,0,0,0-2.25-6.331A15.839,15.839,0,0,1,76.724,22.021Z" transform="translate(-58.31 -15.803)" fill="#e8c43a"/>
      <path id="Path_148" data-name="Path 148" d="M52.93,52.93V57.1a24.558,24.558,0,0,1,4.345.5,22.633,22.633,0,0,0,.6-4.668Z" transform="translate(-40.227 -40.305)" fill="#e8c43a"/>
      <path id="Path_149" data-name="Path 149" d="M31.409,32.289V28.116a24.559,24.559,0,0,1-4.345-.5,22.634,22.634,0,0,0-.6,4.668Z" transform="translate(-20.112 -21.07)" fill="#e8c43a"/>
      <path id="Path_150" data-name="Path 150" d="M15.964,6.774a15.847,15.847,0,0,1,.908-2.256,10.6,10.6,0,0,1,1.362-2.11A11.969,11.969,0,0,0,13.5,5.33c-.117.117-.231.237-.342.357A14.693,14.693,0,0,0,15.964,6.774Z" transform="translate(-9.999 -1.908)" fill="#e8c43a"/>
      <path id="Path_151" data-name="Path 151" d="M67.961,79.4a15.846,15.846,0,0,1-.908,2.256,10.6,10.6,0,0,1-1.362,2.11,11.969,11.969,0,0,0,4.734-2.922c.117-.117.231-.237.342-.357A14.69,14.69,0,0,0,67.961,79.4Z" transform="translate(-49.925 -60.422)" fill="#e8c43a"/>
      <path id="Path_152" data-name="Path 152" d="M31.409,52.93H26.463a22.633,22.633,0,0,0,.6,4.668,24.558,24.558,0,0,1,4.345-.5Z" transform="translate(-20.112 -40.305)" fill="#e8c43a"/>
      <path id="Path_153" data-name="Path 153" d="M33.2,81.082a3.542,3.542,0,0,0,1.319.734V76.177a23.224,23.224,0,0,0-3.962.443,14.383,14.383,0,0,0,.8,1.957A7.828,7.828,0,0,0,33.2,81.082Z" transform="translate(-23.227 -57.973)" fill="#e8c43a"/>
    </g>
  </g>
</svg>
