<svg xmlns="http://www.w3.org/2000/svg" xmlns:xlink="http://www.w3.org/1999/xlink" width="285.418" height="150" viewBox="0 0 285.418 150">
  <defs>
    <radialGradient id="radial-gradient" cx="0.5" cy="0.5" r="0.517" gradientTransform="translate(0.031) scale(0.937 1)" gradientUnits="objectBoundingBox">
      <stop offset="0" stop-color="#f2d230"/>
      <stop offset="1" stop-color="#d9a91a"/>
    </radialGradient>
  </defs>
  <g id="Amici_LOGO_copy" data-name="Amici LOGO copy" transform="translate(-127.1 -236)">
    <g id="Group_381" data-name="Group 381" transform="translate(127.1 332.594)">
      <path id="Path_1215" data-name="Path 1215" d="M143.354,453.056h-7.663a.445.445,0,0,0-.511.511v1.161a.445.445,0,0,0,.511.511h5.9v2.647a4.975,4.975,0,0,1-1.393,1.393,7.058,7.058,0,0,1-3.854,1.068,7.105,7.105,0,1,1-.046-14.211,6.585,6.585,0,0,1,4.087,1.254.956.956,0,0,0,.418.232.48.48,0,0,0,.372-.186l.836-.836c.139-.139.186-.232.186-.325,0-.186-.279-.464-.836-.789A9.184,9.184,0,0,0,136.341,444a9.242,9.242,0,1,0,.046,18.483,8.77,8.77,0,0,0,5.248-1.579,6.539,6.539,0,0,0,2-2.09,2.559,2.559,0,0,0,.232-1.161V453.52C143.865,453.2,143.725,453.056,143.354,453.056Z" transform="translate(-127.1 -444)" fill="#fff"/>
      <path id="Path_1216" data-name="Path 1216" d="M178.106,444.4h-7.895a.445.445,0,0,0-.511.511v17.136a.445.445,0,0,0,.511.511h7.895a.445.445,0,0,0,.511-.511v-1.161a.445.445,0,0,0-.511-.511h-5.991c-.186,0-.232-.093-.232-.232v-5.387c0-.186.093-.232.232-.232h5.991a.445.445,0,0,0,.511-.511v-1.161a.445.445,0,0,0-.511-.511h-5.991c-.186,0-.232-.093-.232-.232v-5.248c0-.186.093-.232.232-.232h5.991a.445.445,0,0,0,.511-.511v-1.161C178.616,444.539,178.477,444.4,178.106,444.4Z" transform="translate(-149.917 -444.214)" fill="#fff"/>
      <path id="Path_1217" data-name="Path 1217" d="M208.628,444.4h-1.161a.445.445,0,0,0-.511.511v14.257c0,.046,0,.093-.046.093l-.093-.093-8.591-14.35a.741.741,0,0,0-.65-.372h-1.765a.445.445,0,0,0-.511.511v17.136a.445.445,0,0,0,.511.511h1.161a.445.445,0,0,0,.511-.511V447.929c0-.046,0-.093.046-.093s.046.046.093.093l8.545,14.257a.741.741,0,0,0,.65.372h1.765a.445.445,0,0,0,.511-.511V444.911C209.139,444.539,208.953,444.4,208.628,444.4Z" transform="translate(-163.628 -444.214)" fill="#fff"/>
      <path id="Path_1218" data-name="Path 1218" d="M240.106,444.4h-7.895a.445.445,0,0,0-.511.511v17.136a.445.445,0,0,0,.511.511h7.895a.445.445,0,0,0,.511-.511v-1.161a.445.445,0,0,0-.511-.511h-5.991c-.186,0-.232-.093-.232-.232v-5.387c0-.186.093-.232.232-.232h5.991a.445.445,0,0,0,.511-.511v-1.161a.445.445,0,0,0-.511-.511h-5.991c-.186,0-.232-.093-.232-.232v-5.248c0-.186.093-.232.232-.232h5.991a.445.445,0,0,0,.511-.511v-1.161C240.57,444.539,240.431,444.4,240.106,444.4Z" transform="translate(-183.124 -444.214)" fill="#fff"/>
      <path id="Path_1219" data-name="Path 1219" d="M263.9,455.22a.241.241,0,0,1,.093-.186l.7-.418a5.341,5.341,0,0,0,2.415-4.6,5.459,5.459,0,0,0-1.579-4.04,5.6,5.6,0,0,0-4.133-1.579h-4.18a.445.445,0,0,0-.511.511v17.136a.445.445,0,0,0,.511.511h1.207a.445.445,0,0,0,.511-.511v-6.223c0-.186.093-.232.232-.232h2.09a.331.331,0,0,1,.279.139l3.9,6.455a.741.741,0,0,0,.65.372h1.625c.232,0,.325-.093.325-.279,0-.046-.046-.093-.093-.186Zm-2.508-1.811h-2.229c-.186,0-.279-.093-.232-.232v-6.362c0-.186.093-.279.232-.232h2.183a3.514,3.514,0,0,1,2.461.836,3.27,3.27,0,0,1,1.068,2.6,3.515,3.515,0,0,1-.836,2.368A3.3,3.3,0,0,1,261.39,453.409Z" transform="translate(-196.514 -444.214)" fill="#fff"/>
      <path id="Path_1220" data-name="Path 1220" d="M293.388,444.818a.546.546,0,0,0-.557-.418h-.743a.546.546,0,0,0-.557.418l-6.084,17.276a.351.351,0,0,0-.046.186c0,.186.139.279.372.279h1.347a.546.546,0,0,0,.557-.418l1.254-3.483a.237.237,0,0,1,.232-.186h6.548c.139,0,.186.046.232.186l1.207,3.483a.546.546,0,0,0,.557.418H299.1c.232,0,.372-.093.372-.279a.279.279,0,0,0-.046-.186Zm1.486,11.517h-4.83c-.186,0-.232-.046-.232-.186a.171.171,0,0,1,.046-.139l2.6-7.616c0-.046,0-.046.046-.046s.046,0,.046.046l2.6,7.616c0,.046.046.093.046.139A.47.47,0,0,1,294.874,456.335Z" transform="translate(-211.886 -444.214)" fill="#fff"/>
      <path id="Path_1221" data-name="Path 1221" d="M329.552,460.375h-6.037c-.186,0-.232-.093-.232-.232V444.911a.445.445,0,0,0-.511-.511h-1.161a.445.445,0,0,0-.511.511v17.136a.445.445,0,0,0,.511.511h7.941a.445.445,0,0,0,.511-.511v-1.161A.445.445,0,0,0,329.552,460.375Z" transform="translate(-231.007 -444.214)" fill="#fff"/>
      <path id="Path_1222" data-name="Path 1222" d="M374.653,444.4H364.111a.445.445,0,0,0-.511.511v1.161a.445.445,0,0,0,.511.511h3.9c.186,0,.232.093.232.232v15.232a.445.445,0,0,0,.511.511h1.161a.445.445,0,0,0,.511-.511V446.815c0-.186.093-.232.232-.232h3.994a.445.445,0,0,0,.511-.511v-1.161A.445.445,0,0,0,374.653,444.4Z" transform="translate(-253.77 -444.214)" fill="#fff"/>
      <path id="Path_1223" data-name="Path 1223" d="M400.5,455.22a.241.241,0,0,1,.093-.186l.7-.418a5.34,5.34,0,0,0,2.415-4.6,5.459,5.459,0,0,0-1.579-4.04,5.6,5.6,0,0,0-4.133-1.579h-4.18a.445.445,0,0,0-.511.511v17.136a.445.445,0,0,0,.511.511h1.207a.445.445,0,0,0,.511-.511v-6.223c0-.186.093-.232.232-.232h2.09a.331.331,0,0,1,.279.139l3.9,6.455a.741.741,0,0,0,.65.372h1.625c.232,0,.325-.093.325-.279,0-.046-.046-.093-.093-.186Zm-2.508-1.811h-2.183c-.186,0-.279-.093-.232-.232v-6.362c0-.186.093-.279.232-.232h2.183a3.513,3.513,0,0,1,2.461.836,3.27,3.27,0,0,1,1.068,2.6,3.515,3.515,0,0,1-.836,2.368A3.468,3.468,0,0,1,397.99,453.409Z" transform="translate(-269.678 -444.214)" fill="#fff"/>
      <path id="Path_1224" data-name="Path 1224" d="M429.988,444.818a.546.546,0,0,0-.557-.418h-.743a.546.546,0,0,0-.557.418l-6.084,17.276a.351.351,0,0,0-.046.186c0,.186.139.279.371.279h1.347a.546.546,0,0,0,.557-.418l1.254-3.483a.237.237,0,0,1,.232-.186h6.548c.139,0,.186.046.232.186l1.207,3.483a.546.546,0,0,0,.557.418H435.7c.232,0,.371-.093.371-.279a.279.279,0,0,0-.046-.186Zm1.486,11.517h-4.83c-.186,0-.232-.046-.232-.186a.171.171,0,0,1,.046-.139l2.6-7.616c0-.046,0-.046.046-.046s.046,0,.046.046l2.6,7.616c0,.046.046.093.046.139A.47.47,0,0,1,431.474,456.335Z" transform="translate(-285.049 -444.214)" fill="#fff"/>
      <path id="Path_1225" data-name="Path 1225" d="M463.273,444.4h-5.062a.445.445,0,0,0-.511.511v17.136a.445.445,0,0,0,.511.511h5.062a8.959,8.959,0,0,0,9.009-9.056,8.833,8.833,0,0,0-2.647-6.455A8.552,8.552,0,0,0,463.273,444.4Zm4.783,13.978a6.536,6.536,0,0,1-4.783,2.043h-3.111c-.186,0-.232-.093-.232-.232V446.908c0-.186.093-.232.232-.232h3.111a6.977,6.977,0,0,1,6.919,6.919A6.877,6.877,0,0,1,468.056,458.378Z" transform="translate(-304.171 -444.214)" fill="#fff"/>
      <path id="Path_1226" data-name="Path 1226" d="M497.272,444.492h-1.161a.445.445,0,0,0-.511.511v17.136a.445.445,0,0,0,.511.511h1.161a.445.445,0,0,0,.511-.511V445C497.783,444.631,497.643,444.445,497.272,444.492Z" transform="translate(-324.47 -444.26)" fill="#fff"/>
      <path id="Path_1227" data-name="Path 1227" d="M519.982,444.4h-1.161a.445.445,0,0,0-.511.511v14.257c0,.046,0,.093-.046.093s-.046-.046-.093-.093l-8.545-14.4a.741.741,0,0,0-.65-.371h-1.765a.445.445,0,0,0-.511.511v17.136a.445.445,0,0,0,.511.511h1.161a.445.445,0,0,0,.511-.511V447.929c0-.046,0-.093.046-.093s.046.046.093.093l8.545,14.257a.741.741,0,0,0,.65.372h1.765a.445.445,0,0,0,.511-.511V444.911C520.493,444.539,520.353,444.4,519.982,444.4Z" transform="translate(-330.415 -444.214)" fill="#fff"/>
      <path id="Path_1228" data-name="Path 1228" d="M559.054,453.056h-7.663a.445.445,0,0,0-.511.511v1.161a.445.445,0,0,0,.511.511h5.9v2.647a4.975,4.975,0,0,1-1.393,1.393,7.058,7.058,0,0,1-3.854,1.068A7.105,7.105,0,1,1,552,446.136a6.585,6.585,0,0,1,4.087,1.254.955.955,0,0,0,.418.232.48.48,0,0,0,.371-.186l.836-.836c.139-.139.186-.232.186-.325,0-.186-.279-.464-.836-.789A9.184,9.184,0,0,0,552.042,444a9.242,9.242,0,1,0,.047,18.483,8.77,8.77,0,0,0,5.248-1.579,6.539,6.539,0,0,0,2-2.09,2.559,2.559,0,0,0,.232-1.161V453.52C559.565,453.2,559.425,453.056,559.054,453.056Z" transform="translate(-349.75 -444)" fill="#fff"/>
      <path id="Path_1229" data-name="Path 1229" d="M611.752,460.375h-6.037c-.186,0-.232-.093-.232-.232V444.911a.445.445,0,0,0-.511-.511h-1.161a.445.445,0,0,0-.511.511v17.136a.445.445,0,0,0,.511.511h7.941a.445.445,0,0,0,.511-.511v-1.161A.445.445,0,0,0,611.752,460.375Z" transform="translate(-382.154 -444.214)" fill="#fff"/>
      <path id="Path_1230" data-name="Path 1230" d="M637.552,460.375h-6.037c-.186,0-.232-.093-.232-.232V444.911a.445.445,0,0,0-.511-.511h-1.161a.445.445,0,0,0-.511.511v17.136a.445.445,0,0,0,.511.511h7.941a.445.445,0,0,0,.511-.511v-1.161C638.016,460.515,637.877,460.375,637.552,460.375Z" transform="translate(-395.973 -444.214)" fill="#fff"/>
      <path id="Path_1231" data-name="Path 1231" d="M666.725,459.186c-.139-.139-.232-.232-.372-.232a.555.555,0,0,0-.371.186,6.634,6.634,0,0,1-3.947,1.207,7.061,7.061,0,0,1-5.016-2.183,6.881,6.881,0,0,1-2.183-4.969,7.166,7.166,0,0,1,11.146-5.8c.186.139.279.186.371.186a.474.474,0,0,0,.372-.232l.743-.975a.617.617,0,0,0,.139-.325c0-.139-.139-.325-.372-.511A8.877,8.877,0,0,0,662.081,444a9.155,9.155,0,0,0-6.641,2.74,9.139,9.139,0,0,0,0,13.05,9.05,9.05,0,0,0,6.594,2.74A8.89,8.89,0,0,0,667,461.136c.418-.279.6-.464.6-.65a.617.617,0,0,0-.139-.325Z" transform="translate(-408.613 -444)" fill="#fff"/>
    </g>
    <g id="Group_382" data-name="Group 382" transform="translate(130.862 358.879)">
      <path id="Path_1232" data-name="Path 1232" d="M144.534,516.2a3.873,3.873,0,0,0-4.04,3.019,9.719,9.719,0,0,1-1.115-.046h-.789c-2.276,0-3.39,1.161-3.39,3.483l.139,9.241h1.811l-.093-8.777c-.046-1.486.511-2.229,1.533-2.229h1.625a5.747,5.747,0,0,0,1.115,3.669,4.14,4.14,0,0,0,3.344,1.579c2.647,0,4.226-1.858,4.226-4.969a5.316,5.316,0,0,0-1.115-3.39A4.026,4.026,0,0,0,144.534,516.2Zm1.9,7.616a2.1,2.1,0,0,1-1.765.836,2.221,2.221,0,0,1-1.765-.836,3.933,3.933,0,0,1-.836-2.647,4,4,0,0,1,.743-2.647,2.07,2.07,0,0,1,1.718-.836,2.22,2.22,0,0,1,1.765.836,3.932,3.932,0,0,1,.836,2.647A4.284,4.284,0,0,1,146.438,523.816Z" transform="translate(-135.2 -508.955)" fill="#e8c43a"/>
      <rect id="Rectangle_120" data-name="Rectangle 120" width="2.043" height="2.229" transform="translate(15.557 15)" fill="#e8c43a"/>
      <path id="Path_1233" data-name="Path 1233" d="M185.634,516.2a3.873,3.873,0,0,0-4.04,3.019,9.719,9.719,0,0,1-1.115-.046h-.789c-2.276,0-3.39,1.161-3.39,3.483l.139,9.241h1.811l-.093-8.777c-.046-1.486.511-2.229,1.533-2.229h1.625a5.747,5.747,0,0,0,1.115,3.669,4.14,4.14,0,0,0,3.344,1.579c2.647,0,4.226-1.858,4.226-4.969a5.316,5.316,0,0,0-1.115-3.39A3.962,3.962,0,0,0,185.634,516.2Zm1.95,7.616a2.1,2.1,0,0,1-1.765.836,2.221,2.221,0,0,1-1.765-.836,3.933,3.933,0,0,1-.836-2.647,4,4,0,0,1,.743-2.647,2.07,2.07,0,0,1,1.718-.836,2.22,2.22,0,0,1,1.765.836,3.933,3.933,0,0,1,.836,2.647A4.284,4.284,0,0,1,187.585,523.816Z" transform="translate(-157.213 -508.955)" fill="#e8c43a"/>
      <rect id="Rectangle_121" data-name="Rectangle 121" width="2.043" height="2.229" transform="translate(34.644 15)" fill="#e8c43a"/>
      <rect id="Rectangle_122" data-name="Rectangle 122" width="1.904" height="2.043" transform="translate(43.793 3.297)" fill="#e8c43a"/>
      <path id="Path_1234" data-name="Path 1234" d="M224.494,516.7v1.672c.836,0,1.625.6,2.322,1.765a9.033,9.033,0,0,1,1.254,4.6h-7.012l-.557,1.718h9.288a14.2,14.2,0,0,0-1.625-7.337C227.141,517.536,225.933,516.7,224.494,516.7Z" transform="translate(-180.887 -509.223)" fill="#e8c43a"/>
      <rect id="Rectangle_123" data-name="Rectangle 123" width="1.904" height="2.09" transform="translate(54.52 1.3)" fill="#e8c43a"/>
      <rect id="Rectangle_124" data-name="Rectangle 124" width="1.904" height="2.09" transform="translate(57.632 1.3)" fill="#e8c43a"/>
      <path id="Path_1235" data-name="Path 1235" d="M266.8,514.172c-2.694,0-4.319,1.9-4.319,5.016a5.293,5.293,0,0,0,1.068,3.3h-5.619c-.743,0-1.068-.464-1.068-1.347v-8.406h-1.765v1.3h-.046a3.435,3.435,0,0,0-2.833-1.532,3.221,3.221,0,0,0-2.461,1.115,5.348,5.348,0,0,0-1.254,3.854c0,2.554.975,3.808,2.926,3.808h3.808c-.046,1.951.882,2.926,2.74,2.926h9.056c2.693,0,4.226-1.9,4.226-5.016a5.226,5.226,0,0,0-1.115-3.39A4.177,4.177,0,0,0,266.8,514.172Zm-15,5.433a1.277,1.277,0,0,1-1.254-.7,3.319,3.319,0,0,1-.186-1.347,4,4,0,0,1,.743-2.647,1.877,1.877,0,0,1,1.579-.882,2.7,2.7,0,0,1,2.415,1.672l.046,3.947H251.8Zm16.95,2.183a2.07,2.07,0,0,1-1.718.836,2.221,2.221,0,0,1-1.765-.836,3.933,3.933,0,0,1-.836-2.647,4.278,4.278,0,0,1,.743-2.647,2.07,2.07,0,0,1,1.718-.836,2.22,2.22,0,0,1,1.765.836,3.933,3.933,0,0,1,.836,2.647A4,4,0,0,1,268.748,521.788Z" transform="translate(-195.884 -506.974)" fill="#e8c43a"/>
      <path id="Path_1236" data-name="Path 1236" d="M328.7,500.6h-1.765c0,1.254.046,3.529.046,6.873.046,2.879.046,5.155.046,6.873a1.647,1.647,0,0,1-1.765,1.811h-6.548a1.965,1.965,0,0,1-1.068-.372,16.937,16.937,0,0,0,5.341-6.269,7.255,7.255,0,0,0-2.09-1.625,10.6,10.6,0,0,0-5.108-1.347c-2.833-.046-5.015.7-6.5,2.229v2.183a6.127,6.127,0,0,1,3.483,1.486,20.672,20.672,0,0,1,2.647,2.833,7.557,7.557,0,0,1-3.437.882h-5.619c-.789-.139-1.207-.7-1.207-1.672l-.093-13.839H303.3l.093,14.118a3.225,3.225,0,0,0,.882,2.368,2.5,2.5,0,0,0,1.811.789h5.944a8.727,8.727,0,0,0,4.412-1.3,3.411,3.411,0,0,0,2.647,1.3h6.223a3.177,3.177,0,0,0,3.483-3.483c0-1.718-.046-3.994-.046-6.873C328.7,504.083,328.7,501.807,328.7,500.6Zm-12.028,13.885c-1.95-2.74-3.9-4.412-5.944-4.969a8.548,8.548,0,0,1,5.108-1.347,8.873,8.873,0,0,1,3.715.789c.418.279.882.6,1.347.882A13.5,13.5,0,0,1,316.675,514.485Z" transform="translate(-225.235 -500.6)" fill="#e8c43a"/>
      <path id="Path_1237" data-name="Path 1237" d="M364,500.6l.139,17.229H365.9l-.139-17.229Z" transform="translate(-257.746 -500.6)" fill="#e8c43a"/>
      <rect id="Rectangle_125" data-name="Rectangle 125" width="1.904" height="2.043" transform="translate(113.638 3.297)" fill="#e8c43a"/>
      <rect id="Rectangle_126" data-name="Rectangle 126" width="1.904" height="2.043" transform="translate(116.796 3.297)" fill="#e8c43a"/>
      <path id="Path_1238" data-name="Path 1238" d="M383.655,517.779a4.1,4.1,0,0,0-3.39-1.579c-2.694,0-4.365,1.9-4.365,5.015a5.22,5.22,0,0,0,1.161,3.437,4.231,4.231,0,0,0,3.39,1.579c2.693,0,4.319-1.9,4.319-5.015A4.878,4.878,0,0,0,383.655,517.779Zm-3.111,7.059a2.2,2.2,0,0,1-1.811-.929,4.2,4.2,0,0,1-.836-2.74,4.684,4.684,0,0,1,.743-2.74,2.141,2.141,0,0,1,3.529,0,4.111,4.111,0,0,1,.836,2.74C383.052,523.537,381.937,524.838,380.544,524.838Z" transform="translate(-264.12 -508.955)" fill="#e8c43a"/>
      <path id="Path_1239" data-name="Path 1239" d="M398.466,516.8v7.523a6.823,6.823,0,0,1-1.579,4.5,5.192,5.192,0,0,1-4.087,1.811,15.18,15.18,0,0,0,.789,1.672,6.516,6.516,0,0,0,4.83-2.554,8.625,8.625,0,0,0,1.858-5.712l-.046-7.245Z" transform="translate(-273.172 -509.277)" fill="#e8c43a"/>
      <rect id="Rectangle_127" data-name="Rectangle 127" width="1.904" height="2.043" transform="translate(139.272 19.087)" fill="#e8c43a"/>
      <rect id="Rectangle_128" data-name="Rectangle 128" width="1.904" height="2.043" transform="translate(152.229 3.297)" fill="#e8c43a"/>
      <rect id="Rectangle_129" data-name="Rectangle 129" width="1.95" height="2.043" transform="translate(155.387 3.297)" fill="#e8c43a"/>
      <path id="Path_1240" data-name="Path 1240" d="M458.957,500.6h-1.765c0,1.254.046,3.529.046,6.873.046,2.879.046,5.155.046,6.873a1.647,1.647,0,0,1-1.765,1.811H451.9a1.85,1.85,0,0,1-1.393-.7,3.084,3.084,0,0,1-.836-1.9c-.093-5.016-.093-9.334-.139-12.957h-1.718c.093,5.433.139,10.031.139,13.746a1.79,1.79,0,0,1-.789,1.486,2.42,2.42,0,0,1-1.347.418h-2.972a1.85,1.85,0,0,1-1.393-.7,3.182,3.182,0,0,1-.789-2.229c-.046-1.672-.046-3.344-.046-5.062h-1.765c.093,4.551.093,6.594.046,6.177a1.653,1.653,0,0,1-.789,1.44,2.312,2.312,0,0,1-1.347.418c-.186,0-.7,0-1.486.046h-3.158a11.543,11.543,0,0,0-1.765-5.712,5.944,5.944,0,0,0-5.155-2.6,9.714,9.714,0,0,0-4.18,1.115l.743,1.579a7.125,7.125,0,0,1,3.576-1.022,4.189,4.189,0,0,1,3.344,1.765,7.762,7.762,0,0,1,1.579,4.876H417.765c-.789-.139-1.207-.7-1.207-1.672l-.093-13.839H414.7l.093,14.118a3.225,3.225,0,0,0,.882,2.368,2.5,2.5,0,0,0,1.811.789h19.737a3.537,3.537,0,0,0,3.2-2.136,3.226,3.226,0,0,0,.65,1.161,2.56,2.56,0,0,0,1.95,1.022h3.3a3.537,3.537,0,0,0,3.2-2.136,3.227,3.227,0,0,0,.65,1.161,2.56,2.56,0,0,0,1.95,1.022h3.437a3.177,3.177,0,0,0,3.483-3.483c0-1.718-.046-3.994-.046-6.873C459,504.083,458.957,501.807,458.957,500.6Z" transform="translate(-284.901 -500.6)" fill="#e8c43a"/>
      <rect id="Rectangle_130" data-name="Rectangle 130" width="1.904" height="2.09" transform="translate(185.573 25.031)" fill="#e8c43a"/>
      <rect id="Rectangle_131" data-name="Rectangle 131" width="1.904" height="2.09" transform="translate(182.368 25.031)" fill="#e8c43a"/>
      <rect id="Rectangle_132" data-name="Rectangle 132" width="1.904" height="2.09" transform="translate(208.282 0.418)" fill="#e8c43a"/>
      <rect id="Rectangle_133" data-name="Rectangle 133" width="1.904" height="2.043" transform="translate(206.703 3.297)" fill="#e8c43a"/>
      <rect id="Rectangle_134" data-name="Rectangle 134" width="1.904" height="2.043" transform="translate(209.814 3.297)" fill="#e8c43a"/>
      <rect id="Rectangle_135" data-name="Rectangle 135" width="1.904" height="2.043" transform="translate(224.164 3.297)" fill="#e8c43a"/>
      <rect id="Rectangle_136" data-name="Rectangle 136" width="1.95" height="2.043" transform="translate(227.276 3.297)" fill="#e8c43a"/>
      <rect id="Rectangle_137" data-name="Rectangle 137" width="1.904" height="2.043" transform="translate(237.957 19.133)" fill="#e8c43a"/>
      <rect id="Rectangle_138" data-name="Rectangle 138" width="1.95" height="2.043" transform="translate(234.799 19.133)" fill="#e8c43a"/>
      <path id="Path_1241" data-name="Path 1241" d="M589.26,516.1c-2.693,0-4.319,1.9-4.319,5.016a5.293,5.293,0,0,0,1.068,3.3h-5.341a1.85,1.85,0,0,1-1.393-.7,3.182,3.182,0,0,1-.789-2.229c-.046-1.672-.046-3.344-.046-5.062h-1.765c.093,4.551.093,6.594.046,6.176a1.79,1.79,0,0,1-.789,1.486,2.312,2.312,0,0,1-1.347.418h-4.226a1.85,1.85,0,0,1-1.393-.7,3.182,3.182,0,0,1-.79-2.229c-.046-1.672-.046-3.344-.046-5.062h-1.765c.093,4.551.093,6.594.046,6.176a1.654,1.654,0,0,1-.789,1.44,2.313,2.313,0,0,1-1.347.418c-.186,0-.7,0-1.486.046h-3.3a1.96,1.96,0,0,1-1.393-.65,3.037,3.037,0,0,1-.836-2.043c-.047-2.415-.047-4.18-.047-5.294h-1.765c.046,3.9.093,6.084.093,6.594a1.73,1.73,0,0,1-1.811,1.811,3.37,3.37,0,0,1-2.229-.7,2.924,2.924,0,0,1-.929-2.229c-.046-2.09-.046-3.669-.046-4.644h-1.765c.046,3.3.093,5.248.093,5.8a1.647,1.647,0,0,1-1.765,1.811c-2,0-3.019-.975-3.019-2.972v-4.644h-1.765c.046,1.207.046,2.276.046,3.112v4.18h-5.387a1.83,1.83,0,0,1-1.625-1.672,14.2,14.2,0,0,0-.836-3.947,4.178,4.178,0,0,0-4.087-2.647c-3.251,0-4.923,2.229-4.923,6.734h4.783l.046,1.533a5.943,5.943,0,0,1-1.486,4.04,4.691,4.691,0,0,1-3.622,1.672,4.76,4.76,0,0,1-3.622-1.672,5.616,5.616,0,0,1-1.486-3.994c-.046-1.625-.046-2.74-.046-3.3H518.3c.046,1.533.093,2.6.093,3.251a7.633,7.633,0,0,0,2,5.341,6.347,6.347,0,0,0,9.659,0,7.519,7.519,0,0,0,2-5.294l-.093-3.3h-4.6a3.4,3.4,0,0,1,.836-2.322,2.641,2.641,0,0,1,2.183-.929,2.589,2.589,0,0,1,2.554,1.718,10.087,10.087,0,0,1,.65,3.39,3.572,3.572,0,0,0,1.022,2.276,2.8,2.8,0,0,0,2,.882h7.43v-1.161a3.525,3.525,0,0,0,1.068,1.115,4.315,4.315,0,0,0,2.043.418,3.008,3.008,0,0,0,3.2-2.09,4.059,4.059,0,0,0,1.393,1.718,4.288,4.288,0,0,0,2.043.464,3.265,3.265,0,0,0,3.251-2.368,2.7,2.7,0,0,0,2.554,2h4.923a3.537,3.537,0,0,0,3.2-2.136,3.226,3.226,0,0,0,.65,1.161,2.56,2.56,0,0,0,1.95,1.022h4.551a3.537,3.537,0,0,0,3.2-2.136,3.226,3.226,0,0,0,.65,1.161,2.56,2.56,0,0,0,1.95,1.022h8.591c2.693,0,4.226-1.9,4.226-5.015a5.226,5.226,0,0,0-1.115-3.39A3.1,3.1,0,0,0,589.26,516.1Zm1.951,7.616a2.07,2.07,0,0,1-1.718.836,2.22,2.22,0,0,1-1.765-.836,3.933,3.933,0,0,1-.836-2.647,4.277,4.277,0,0,1,.743-2.647,2.07,2.07,0,0,1,1.718-.836,2.22,2.22,0,0,1,1.765.836,3.932,3.932,0,0,1,.836,2.647A4,4,0,0,1,591.21,523.716Z" transform="translate(-340.39 -508.902)" fill="#e8c43a"/>
      <path id="Path_1242" data-name="Path 1242" d="M688.265,500.6H686.5l.139,17.229H688.4Z" transform="translate(-430.478 -500.6)" fill="#e8c43a"/>
    </g>
    <path id="Path_1243" data-name="Path 1243" d="M176.8,270.1H154.737L133.7,339.109h18.715l3.39-14.675h19.319l3.39,14.675h19.319ZM159.1,310.363l1.161-4.783c1.718-6.594,3.39-14.861,4.876-21.873h.418c1.718,6.92,3.39,15.279,5.108,21.873l1.161,4.783Z" transform="translate(-3.535 -18.264)" fill="#fff"/>
    <path id="Path_1244" data-name="Path 1244" d="M328.758,270.1l-10.4,28.653-3.808,11.238h-.418l-3.808-11.238L299.5,270.1H280.6v69.009h16.765V318.722c0-7.012-1.486-17.74-2.322-24.613h.418l5.526,16.161,9.567,23.266h6.78L326.9,310.27l5.712-16.161h.418c-.836,6.919-2.322,17.6-2.322,24.613v20.387h16.951V270.1Z" transform="translate(-82.215 -18.264)" fill="#fff"/>
    <path id="Path_1245" data-name="Path 1245" d="M452.5,270.1v69.009h18.251V270.1Z" transform="translate(-174.285 -18.264)" fill="#fff"/>
    <path id="Path_1246" data-name="Path 1246" d="M558.5,317.794a15.875,15.875,0,0,1-12.121,5.526c-8.916,0-14.861-7.2-14.861-20.155,0-12.539,7.012-19.969,15.279-19.969,4.458,0,7.43,1.718,10.82,4.69l9.985-11.238c-4.876-4.876-12.306-9.149-21.037-9.149-17.833,0-33.762,13.189-33.762,36.316,0,23.591,15.279,35.248,33.344,35.248a28.788,28.788,0,0,0,22.291-10.217Z" transform="translate(-206.582 -16.872)" fill="#fff"/>
    <path id="Path_1247" data-name="Path 1247" d="M647.7,270.1v17a189.943,189.943,0,0,1,16.3-17Zm17.276,19.923A219.577,219.577,0,0,0,649.7,314.728c-.65,1.254-1.347,2.554-2,3.808v20.619h18.251v-50.48C665.626,289.14,665.3,289.558,664.976,290.023Z" transform="translate(-278.835 -18.264)" fill="#fff"/>
    <path id="Path_1248" data-name="Path 1248" d="M655.736,238.508v.139c-1.44,1.347-2.926,2.647-4.319,3.994a197.743,197.743,0,0,0-24.056,27.678A223.356,223.356,0,0,0,611.9,295.3c-1.765,3.3-3.437,6.641-5.108,9.938a1.016,1.016,0,0,1-.929.6,2.1,2.1,0,0,1-1.9-.882c-2.647-3.111-5.341-6.223-7.988-9.288-4.783-5.526-9.52-11.053-14.3-16.579-.139-.139-.279-.325-.464-.557.65-.836,1.347-1.625,2.043-2.508q9.2,5.155,18.3,10.31c1.672-2.229,3.3-4.458,4.969-6.641a205.834,205.834,0,0,1,27.028-29.118,120.762,120.762,0,0,1,19.6-14.257,3.466,3.466,0,0,0,.557-.325C654.389,236.836,655.085,237.672,655.736,238.508Z" transform="translate(-243.218)" fill="url(#radial-gradient)"/>
  </g>
</svg>
